<?xml version="1.0" encoding="UTF-8" standalone="no"?>
<!-- Generator: Adobe Illustrator 15.0.0, SVG Export Plug-In . SVG Version: 6.00 Build 0)  -->

<svg
   xmlns:dc="http://purl.org/dc/elements/1.1/"
   xmlns:cc="http://creativecommons.org/ns#"
   xmlns:rdf="http://www.w3.org/1999/02/22-rdf-syntax-ns#"
   xmlns:svg="http://www.w3.org/2000/svg"
   xmlns="http://www.w3.org/2000/svg"
   xmlns:xlink="http://www.w3.org/1999/xlink"
   xmlns:sodipodi="http://sodipodi.sourceforge.net/DTD/sodipodi-0.dtd"
   xmlns:inkscape="http://www.inkscape.org/namespaces/inkscape"
   id="svg2"
   xml:space="preserve"
   inkscape:export-ydpi="200"
   viewBox="0 0 298.93207 304.75202"
   inkscape:export-xdpi="200"
   version="1.1"
   sodipodi:docname="Will-Head.svg"
   inkscape:export-filename="Z:\Disk\Picts\SVG_proj\Will_Head.png"
   inkscape:version="0.91 r13725"
   y="0px"
   x="0px"
   enable-background="new 0 0 255.118 274.961"
   width="298.93207"
   height="304.75201"><title
     id="title5695">Knowledge</title><defs
     id="defs1846"><linearGradient
       inkscape:collect="always"
       id="linearGradient4963"><stop
         style="stop-color:#005600;stop-opacity:1"
         offset="0"
         id="stop4965" /><stop
         style="stop-color:#2a432d;stop-opacity:0.80000001"
         offset="1"
         id="stop4967" /></linearGradient><filter
       id="filter4825"
       inkscape:menu="Shadows and Glows"
       inkscape:menu-tooltip="Adds a colorizable glow inside"
       inkscape:label="Inner Glow"
       style="color-interpolation-filters:sRGB"><feGaussianBlur
         id="feGaussianBlur4827"
         stdDeviation="4.097641509433962"
         result="result8" /><feComposite
         id="feComposite4829"
         operator="in"
         in="SourceGraphic"
         in2="result8"
         result="result6" /><feComposite
         id="feComposite4831"
         operator="in"
         in2="result6"
         result="result11" /><feFlood
         id="feFlood4833"
         flood-color="rgb(253,253,253)"
         in="result11"
         result="result10" /><feBlend
         id="feBlend4835"
         result="result12"
         in="result11"
         in2="result10"
         mode="normal" /><feComposite
         id="feComposite4837"
         operator="in"
         in="result12"
         in2="SourceGraphic"
         result="result2" /></filter><mask
       maskUnits="userSpaceOnUse"
       x="2.164"
       y="22.362"
       width="248.955"
       height="253.962"
       id="SVGID_2_" /><linearGradient
       inkscape:collect="always"
       xlink:href="#linearGradient4963"
       id="linearGradient4969"
       x1="-22.862177"
       y1="151.50468"
       x2="276.30536"
       y2="151.50468"
       gradientUnits="userSpaceOnUse" /><filter
       inkscape:collect="always"
       style="color-interpolation-filters:sRGB"
       id="filter4979"
       x="-0.026875714"
       width="1.0537513"
       y="-0.025940834"
       height="1.0518817"><feGaussianBlur
         inkscape:collect="always"
         stdDeviation="2.7917849"
         id="feGaussianBlur4981" /></filter><filter
       inkscape:collect="always"
       style="color-interpolation-filters:sRGB"
       id="filter4411"
       x="-0.006000001"
       width="1.012"
       y="-0.0059999991"
       height="1.012"><feGaussianBlur
         inkscape:collect="always"
         stdDeviation="0.012290875"
         id="feGaussianBlur4413" /></filter><radialGradient
       id="radialGradient4597"
       gradientUnits="userSpaceOnUse"
       cy="96.031998"
       cx="98.942001"
       gradientTransform="matrix(0.29838943,0,0,0.30894385,23.946596,72.807238)"
       r="11.64"><stop
         id="stop4579"
         style="stop-color:#ffa000"
         offset="0" /><stop
         id="stop4581"
         style="stop-color:#f80000;stop-opacity:.96907"
         offset="1" /></radialGradient><radialGradient
       id="radialGradient5500"
       xlink:href="#linearGradient5502"
       gradientUnits="userSpaceOnUse"
       cy="20.106001"
       cx="12.698"
       gradientTransform="matrix(0.29652748,0,0,0.31425519,45.441735,73.781016)"
       r="7.9074001" /><linearGradient
       id="linearGradient5502"><stop
         id="stop5504"
         style="stop-color:#00cbfa"
         offset="0" /><stop
         id="stop5506"
         style="stop-color:#0000fa;stop-opacity:.97255"
         offset="1" /></linearGradient><radialGradient
       id="radialGradient4169"
       xlink:href="#linearGradient5502"
       gradientUnits="userSpaceOnUse"
       cy="20.106001"
       cx="12.698"
       gradientTransform="matrix(1,0,0,0.86618,0,2.6906)"
       r="7.9074001" /><radialGradient
       id="radialGradient4177"
       xlink:href="#linearGradient5502"
       gradientUnits="userSpaceOnUse"
       cy="20.106001"
       cx="12.698"
       gradientTransform="matrix(1,0,0,0.86618,0,2.6906)"
       r="7.9074001" /><radialGradient
       id="radialGradient4185"
       xlink:href="#linearGradient5502"
       gradientUnits="userSpaceOnUse"
       cy="20.106001"
       cx="12.698"
       gradientTransform="matrix(1,0,0,0.86618,0,2.6906)"
       r="7.9074001" /><radialGradient
       id="radialGradient4193"
       xlink:href="#linearGradient5502"
       gradientUnits="userSpaceOnUse"
       cy="20.106001"
       cx="12.698"
       gradientTransform="matrix(1,0,0,0.86618,0,2.6906)"
       r="7.9074001" /><radialGradient
       id="radialGradient4201"
       xlink:href="#linearGradient5502"
       gradientUnits="userSpaceOnUse"
       cy="20.106001"
       cx="12.698"
       gradientTransform="matrix(1,0,0,0.86618,0,2.6906)"
       r="7.9074001" /><radialGradient
       id="radialGradient4209"
       xlink:href="#linearGradient5502"
       gradientUnits="userSpaceOnUse"
       cy="20.106001"
       cx="12.698"
       gradientTransform="matrix(1,0,0,0.86618,0,2.6906)"
       r="7.9074001" /><radialGradient
       id="radialGradient4217"
       xlink:href="#linearGradient5502"
       gradientUnits="userSpaceOnUse"
       cy="20.106001"
       cx="12.698"
       gradientTransform="matrix(1,0,0,0.86618,0,2.6906)"
       r="7.9074001" /><radialGradient
       r="7.9074001"
       cy="20.106001"
       cx="12.698"
       gradientTransform="matrix(0.29652748,0,0,0.31425519,32.021969,84.649665)"
       gradientUnits="userSpaceOnUse"
       id="radialGradient4239"
       xlink:href="#linearGradient5502"
       inkscape:collect="always" /><radialGradient
       r="7.9074001"
       cy="20.106001"
       cx="12.698"
       gradientTransform="matrix(0.29652748,0,0,0.31425519,67.701885,106.70772)"
       gradientUnits="userSpaceOnUse"
       id="radialGradient4241"
       xlink:href="#linearGradient5502"
       inkscape:collect="always" /><radialGradient
       r="7.9074001"
       cy="20.106001"
       cx="12.698"
       gradientTransform="matrix(0.29652748,0,0,0.31425519,59.651338,78.895824)"
       gradientUnits="userSpaceOnUse"
       id="radialGradient4243"
       xlink:href="#linearGradient5502"
       inkscape:collect="always" /><radialGradient
       r="7.9074001"
       cy="20.106001"
       cx="12.698"
       gradientTransform="matrix(0.29652748,0,0,0.31425519,39.126621,113.9004)"
       gradientUnits="userSpaceOnUse"
       id="radialGradient4245"
       xlink:href="#linearGradient5502"
       inkscape:collect="always" /><radialGradient
       r="7.9074001"
       cy="20.106001"
       cx="12.698"
       gradientTransform="matrix(0.29652748,0,0,0.31425519,71.175138,91.202828)"
       gradientUnits="userSpaceOnUse"
       id="radialGradient4247"
       xlink:href="#linearGradient5502"
       inkscape:collect="always" /><radialGradient
       r="7.9074001"
       cy="20.106001"
       cx="12.698"
       gradientTransform="matrix(0.29652748,0,0,0.31425519,29.180108,101.11278)"
       gradientUnits="userSpaceOnUse"
       id="radialGradient4249"
       xlink:href="#linearGradient5502"
       inkscape:collect="always" /><radialGradient
       r="7.9074001"
       cy="20.106001"
       cx="12.698"
       gradientTransform="matrix(0.29652748,0,0,0.31425519,54.441459,117.89399)"
       gradientUnits="userSpaceOnUse"
       id="radialGradient4251"
       xlink:href="#linearGradient5502"
       inkscape:collect="always" /><radialGradient
       id="radialGradient4110"
       gradientUnits="userSpaceOnUse"
       cy="35.685001"
       cx="41.721001"
       gradientTransform="matrix(0.636,0.77169,-0.68672,0.56597,39.692,939.65)"
       r="28.76"
       inkscape:collect="always"><stop
         id="stop3814"
         style="stop-color:#94a4b7;stop-opacity:.35849"
         offset="0" /><stop
         id="stop3822"
         style="stop-color:#9aabbc;stop-opacity:.36863"
         offset=".25" /><stop
         id="stop3820"
         style="stop-color:#a1b2c2;stop-opacity:.38039"
         offset=".71755" /><stop
         id="stop3816"
         style="stop-color:#afc1cd;stop-opacity:.40566"
         offset="1" /></radialGradient><radialGradient
       id="radialGradient4086"
       gradientUnits="userSpaceOnUse"
       cy="80.593002"
       cx="46.584999"
       gradientTransform="matrix(0.99651,-0.083507,0.026652,0.31804,-1.9852,1007.7)"
       r="14.07"
       inkscape:collect="always"><stop
         id="stop3884"
         style="stop-color:#e71ecb"
         offset="0" /><stop
         id="stop3890"
         style="stop-color:#f368de;stop-opacity:.94118"
         offset=".5" /><stop
         id="stop3886"
         style="stop-color:#ffb3f1;stop-opacity:.88208"
         offset="1" /></radialGradient><radialGradient
       id="radialGradient4201-2"
       gradientUnits="userSpaceOnUse"
       cy="35.826"
       cx="45.793999"
       gradientTransform="matrix(-0.23013,1.2706,-1.2298,-0.22273,93.869,933.48)"
       r="31.816"
       inkscape:collect="always"><stop
         id="stop3800"
         style="stop-color:#b8e5f4;stop-opacity:.59906"
         offset="0" /><stop
         id="stop3810"
         style="stop-color:#aed6e3;stop-opacity:.57647"
         offset=".34166" /><stop
         id="stop3808"
         style="stop-color:#a5c8d3;stop-opacity:.55686"
         offset=".93487" /><stop
         id="stop3802"
         style="stop-color:#92acb2;stop-opacity:.51887"
         offset="1" /></radialGradient><filter
       style="color-interpolation-filters:sRGB"
       id="filter4327"
       inkscape:menu="Shadows and Glows"
       inkscape:menu-tooltip="Glow of object's own color at the edges"
       inkscape:label="Glow"><feGaussianBlur
         id="feGaussianBlur4329"
         stdDeviation="10"
         result="result8" /><feComposite
         id="feComposite4331"
         operator="in"
         in="SourceGraphic"
         in2="result8"
         result="result6" /><feComposite
         id="feComposite4333"
         operator="in"
         in2="result6"
         result="result11" /><feFlood
         id="feFlood4335"
         flood-color="rgb(255,222,85)"
         in="result11"
         result="result10" /><feBlend
         id="feBlend4337"
         result="result12"
         in="result11"
         in2="result10"
         mode="normal" /><feComposite
         id="feComposite4339"
         operator="in"
         in="result12"
         in2="SourceGraphic"
         result="fbSourceGraphic" /><feColorMatrix
         id="feColorMatrix4353"
         values="0 0 0 -1 0 0 0 0 -1 0 0 0 0 -1 0 0 0 0 1 0"
         result="fbSourceGraphicAlpha"
         in="fbSourceGraphic" /><feGaussianBlur
         id="feGaussianBlur4355"
         in="fbSourceGraphic"
         stdDeviation="5"
         result="result91" /><feComposite
         id="feComposite4357"
         operator="over"
         in2="result91"
         in="fbSourceGraphic" /></filter><radialGradient
       id="radialGradient4082"
       gradientUnits="userSpaceOnUse"
       cy="57.185001"
       cx="46.438"
       gradientTransform="matrix(0.53497,0.27727,-0.2147,0.41424,33.873,976.98)"
       r="4.4099998"
       inkscape:collect="always"><stop
         id="stop3876"
         style="stop-color:#ffffff;stop-opacity:.67453"
         offset="0" /><stop
         id="stop3878"
         style="stop-color:#edf9ff;stop-opacity:.54717"
         offset="1" /></radialGradient><radialGradient
       id="radialGradient4077"
       gradientUnits="userSpaceOnUse"
       cy="5.2793999"
       cx="47.015999"
       gradientTransform="matrix(-1.7912,0.48391,-0.34048,-1.2603,144.96,951.83)"
       r="22.347"
       inkscape:collect="always"><stop
         id="stop3826"
         style="stop-color:#ffffff;stop-opacity:.67453"
         offset="0" /><stop
         id="stop3832"
         style="stop-color:#edf9ff;stop-opacity:0"
         offset=".70728" /><stop
         id="stop3828"
         style="stop-color:#dbf4ff;stop-opacity:0"
         offset="1" /></radialGradient><radialGradient
       id="radialGradient4071"
       gradientUnits="userSpaceOnUse"
       cy="47.143002"
       cx="45.627998"
       gradientTransform="matrix(1.304,1.6207,-1.4181,1.1411,52.983,875.76)"
       r="18.278"
       inkscape:collect="always"><stop
         id="stop3860"
         style="stop-color:#ffffff;stop-opacity:.67453"
         offset="0" /><stop
         id="stop3862"
         style="stop-color:#edf9ff;stop-opacity:0"
         offset=".47064" /><stop
         id="stop3864"
         style="stop-color:#dbf4ff;stop-opacity:0"
         offset="1" /></radialGradient><radialGradient
       id="radialGradient4073"
       gradientUnits="userSpaceOnUse"
       cy="47.143002"
       cx="45.627998"
       gradientTransform="matrix(-0.1019,0.99479,-1.1489,-0.11769,104.44,963.66)"
       r="18.278"
       inkscape:collect="always"><stop
         id="stop3844"
         style="stop-color:#ffffff;stop-opacity:.67453"
         offset="0" /><stop
         id="stop3846"
         style="stop-color:#edf9ff;stop-opacity:0"
         offset=".70728" /><stop
         id="stop3848"
         style="stop-color:#dbf4ff;stop-opacity:0"
         offset="1" /></radialGradient><filter
       inkscape:collect="always"
       style="color-interpolation-filters:sRGB"
       id="filter4452"
       x="-0.057266533"
       width="1.1145331"
       y="-0.15754686"
       height="1.3150938"><feGaussianBlur
         inkscape:collect="always"
         stdDeviation="0.70879041"
         id="feGaussianBlur4454" /></filter><filter
       inkscape:collect="always"
       style="color-interpolation-filters:sRGB"
       id="filter4272"
       x="-0.0072959997"
       width="1.0145921"
       y="-0.033777781"
       height="1.0675555"><feGaussianBlur
         inkscape:collect="always"
         stdDeviation="0.067175142"
         id="feGaussianBlur4274" /></filter><filter
       inkscape:collect="always"
       style="color-interpolation-filters:sRGB"
       id="filter4410"
       x="-0.065664001"
       width="1.131328"
       y="-0.30400005"
       height="1.6080002"><feGaussianBlur
         inkscape:collect="always"
         stdDeviation="0.60457628"
         id="feGaussianBlur4412" /></filter><filter
       inkscape:collect="always"
       style="color-interpolation-filters:sRGB"
       id="filter4462"
       x="-0.021175493"
       width="1.042351"
       y="-0.027693979"
       height="1.055388"><feGaussianBlur
         inkscape:collect="always"
         stdDeviation="0.090589821"
         id="feGaussianBlur4464" /></filter><radialGradient
       id="radialGradient4104"
       xlink:href="#linearGradient3892"
       gradientUnits="userSpaceOnUse"
       cy="69.195999"
       cx="46.080002"
       gradientTransform="matrix(-0.9998,-0.020025,0.0091376,-0.45623,91.518,1061.5)"
       r="13.68"
       inkscape:collect="always" /><linearGradient
       id="linearGradient3892"><stop
         id="stop3894"
         style="stop-color:#ffafec"
         offset="0" /><stop
         id="stop3896"
         style="stop-color:#ce8fc7"
         offset="1" /></linearGradient><radialGradient
       id="radialGradient4101"
       xlink:href="#linearGradient3892"
       gradientUnits="userSpaceOnUse"
       cy="77.109001"
       cx="46.443001"
       gradientTransform="matrix(1,0,0,0.19796,0,1018.2)"
       r="13.531"
       inkscape:collect="always" /><radialGradient
       id="radialGradient4098"
       xlink:href="#linearGradient3892"
       gradientUnits="userSpaceOnUse"
       cy="79.376999"
       cx="46.383999"
       gradientTransform="matrix(1,0,0,0.22263,0,1018.1)"
       r="13.472"
       inkscape:collect="always" /><radialGradient
       id="radialGradient4095"
       xlink:href="#linearGradient3892"
       gradientUnits="userSpaceOnUse"
       cy="82.353996"
       cx="46.494999"
       gradientTransform="matrix(1,0,0,0.21428,0,1021.1)"
       r="13.351"
       inkscape:collect="always" /><radialGradient
       id="radialGradient4092"
       xlink:href="#linearGradient3892"
       gradientUnits="userSpaceOnUse"
       cy="85.504997"
       cx="46.500999"
       gradientTransform="matrix(1,0,0,0.22584,0,1022.6)"
       r="12.824"
       inkscape:collect="always" /><linearGradient
       id="linearGradient4089"
       y2="89.464996"
       xlink:href="#linearGradient3892"
       spreadMethod="reflect"
       gradientUnits="userSpaceOnUse"
       x2="57.013"
       gradientTransform="translate(0,956.36)"
       y1="89.714996"
       x1="47.094002"
       inkscape:collect="always" /><linearGradient
       id="linearGradient4065"
       y2="1046.3"
       gradientUnits="userSpaceOnUse"
       x2="46.242001"
       y1="1049.2"
       x1="46.159"
       inkscape:collect="always"><stop
         id="stop3964"
         style="stop-color:#000000"
         offset="0" /><stop
         id="stop3966"
         style="stop-color:#000000;stop-opacity:0"
         offset="1" /></linearGradient><linearGradient
       id="linearGradient4068"
       y2="77.700996"
       gradientUnits="userSpaceOnUse"
       x2="46.924"
       gradientTransform="translate(0,956.36)"
       y1="72.639"
       x1="46.588001"
       inkscape:collect="always"><stop
         id="stop3950"
         style="stop-color:#000000;stop-opacity:.41981"
         offset="0" /><stop
         id="stop3952"
         style="stop-color:#000000;stop-opacity:.11321"
         offset="1" /></linearGradient><linearGradient
       id="linearGradient2522"
       y2="267.04999"
       xlink:href="#linearGradient2188"
       gradientUnits="userSpaceOnUse"
       x2="591.15997"
       gradientTransform="matrix(0.54809,0,0,0.73172,235.18,43.719)"
       y1="267.04999"
       x1="440.60001"
       inkscape:collect="always" /><linearGradient
       id="linearGradient2188"><stop
         id="stop2190"
         style="stop-color:#e5ffff"
         offset="0" /><stop
         id="stop2196"
         style="stop-color:#00609e;stop-opacity:.49804"
         offset=".30189" /><stop
         id="stop2192"
         style="stop-color:#00609e;stop-opacity:0"
         offset="1" /></linearGradient><radialGradient
       id="radialGradient2524"
       gradientUnits="userSpaceOnUse"
       cy="374.53"
       cx="516.53003"
       gradientTransform="matrix(2.0343,1.114,-0.89067,1.6264,-198.3,-814.79)"
       r="121.13"
       inkscape:collect="always"><stop
         id="stop2277"
         style="stop-color:#5aadd2"
         offset="0" /><stop
         id="stop2279"
         style="stop-color:#fcffff;stop-opacity:0"
         offset="1" /></radialGradient><linearGradient
       id="linearGradient2526"
       y2="291.03"
       xlink:href="#linearGradient2188"
       gradientUnits="userSpaceOnUse"
       x2="558.14001"
       gradientTransform="matrix(1,0,0,3.92,0,-899.93)"
       y1="291.03"
       x1="477.92001"
       inkscape:collect="always" /><linearGradient
       id="linearGradient2528"
       y2="386.10999"
       xlink:href="#linearGradient2281"
       gradientUnits="userSpaceOnUse"
       x2="476.51001"
       y1="346.70001"
       x1="454.78"
       inkscape:collect="always" /><linearGradient
       id="linearGradient2281"><stop
         id="stop2283"
         style="stop-color:#fcffff"
         offset="0" /><stop
         id="stop2285"
         style="stop-color:#fcffff;stop-opacity:0"
         offset="1" /></linearGradient><linearGradient
       id="linearGradient2530"
       y2="452.04999"
       gradientUnits="userSpaceOnUse"
       x2="198.11"
       gradientTransform="matrix(1.0713,0,0,0.48518,268.1,68.922)"
       y1="398.01001"
       x1="197.61"
       inkscape:collect="always"><stop
         id="stop2237"
         style="stop-color:#ffffff;stop-opacity:.57292"
         offset="0" /><stop
         id="stop2239"
         style="stop-color:#ffffff;stop-opacity:0"
         offset="1" /></linearGradient><linearGradient
       id="linearGradient1408"
       y2="499.39001"
       xlink:href="#linearGradient2281"
       gradientUnits="userSpaceOnUse"
       x2="599.25"
       y1="550.66998"
       x1="604.76001"
       inkscape:collect="always" /><filter
       style="color-interpolation-filters:sRGB"
       id="filter4267"><feGaussianBlur
         id="feGaussianBlur4269"
         stdDeviation="6.6627729" /></filter><linearGradient
       id="linearGradient4602"
       y2="1036.2"
       xlink:href="#linearGradient3382"
       gradientUnits="userSpaceOnUse"
       x2="177.75"
       gradientTransform="matrix(0.51856,0,0,0.51856,124.88,-125.76)"
       y1="739.19"
       x1="385.26999" /><linearGradient
       id="linearGradient3382"><stop
         id="stop3384"
         stop-color="#fff"
         offset="0" /><stop
         id="stop3386"
         stop-color="#c6c6c6"
         offset="1" /></linearGradient><linearGradient
       id="linearGradient4604"
       y2="712.28003"
       xlink:href="#linearGradient3598"
       gradientUnits="userSpaceOnUse"
       x2="381.07001"
       gradientTransform="matrix(0.51856,0,0,0.51856,124.88,-125.76)"
       y1="601.63"
       x1="206.86" /><linearGradient
       id="linearGradient3598"><stop
         id="stop3600"
         stop-color="#fff"
         offset="0" /><stop
         id="stop3604"
         stop-color="#dbdbdb"
         offset=".8166" /><stop
         id="stop3602"
         stop-color="#929292"
         offset="1" /></linearGradient><linearGradient
       id="linearGradient4606"
       y2="663.78998"
       xlink:href="#linearGradient3382"
       gradientUnits="userSpaceOnUse"
       x2="345.70999"
       gradientTransform="matrix(0.51856,0,0,0.51856,30.513,-184.61)"
       y1="589.51001"
       x1="178.57001" /><linearGradient
       id="linearGradient4608"
       y2="767.67999"
       xlink:href="#linearGradient3598"
       gradientUnits="userSpaceOnUse"
       x2="437.29001"
       gradientTransform="matrix(0.51856,0,0,0.51856,124.88,-125.76)"
       y1="972.32001"
       x1="753.97998" /><linearGradient
       id="linearGradient4610"
       y2="737.19"
       xlink:href="#linearGradient3598"
       gradientUnits="userSpaceOnUse"
       x2="388.76001"
       gradientTransform="matrix(0.51856,0,0,0.51856,125.21,-126.14)"
       y1="815.98999"
       x1="528.46002" /><linearGradient
       id="linearGradient4612"
       y2="737.19"
       xlink:href="#linearGradient3382"
       gradientUnits="userSpaceOnUse"
       x2="411.98999"
       gradientTransform="matrix(0.51856,0,0,0.51856,222.13,-69.447)"
       y1="710.92999"
       x1="377.95001" /><path
       style="fill:none"
       inkscape:connector-curvature="0"
       d="m 308.32,300.15 c 16.68,1.9885 41.34,11.557 63.866,21.289"
       id="path4443" /><path
       style="fill:none"
       inkscape:connector-curvature="0"
       d="m 313.46,288.4 c 21.333,4.5889 47.181,11.363 65.334,20.555"
       id="path4438" /><path
       style="fill:none"
       inkscape:connector-curvature="0"
       d="m 227.85,209.06 c 29.994,16.312 54.203,31.967 75.563,51.142"
       id="path4304" /><path
       style="fill:none"
       inkscape:connector-curvature="0"
       d="m 223.34,218.45 c 26.718,13.422 49.981,28.416 72.219,46.557"
       id="path4298" /><path
       style="fill:none"
       inkscape:connector-curvature="0"
       d="m 219.18,229.58 c 22.856,12.945 53.709,28.478 75.205,51.485"
       id="path4300" /><path
       style="fill:none"
       inkscape:connector-curvature="0"
       d="m 214.12,237.19 c 20.891,10.856 43.992,25.392 67.696,43.773"
       id="path4302" /><path
       style="fill:none"
       inkscape:connector-curvature="0"
       d="m 206.62,248.35 c 19.787,10.232 44.866,23.126 68.755,41.266"
       id="path4313" /><path
       style="fill:none"
       inkscape:connector-curvature="0"
       d="m 388.14,166.39 c 14.424,-4.4882 60.054,6.0513 88.867,22.418"
       id="path4273" /><path
       style="fill:none"
       inkscape:connector-curvature="0"
       d="m 355.48,207.07 c 14.424,-4.4882 60.054,6.0513 88.867,22.418"
       id="path4284" /><path
       style="fill:none"
       inkscape:connector-curvature="0"
       d="m 347.45,219.33 c 14.424,-4.4882 60.476,6.0513 89.29,22.418"
       id="path4286" /><path
       style="fill:none"
       inkscape:connector-curvature="0"
       d="m 340.68,232.86 c 14.424,-4.4882 60.476,6.0513 89.29,22.418"
       id="path4288" /><path
       style="fill:none"
       inkscape:connector-curvature="0"
       d="m 331.37,247.24 c 14.424,-4.4882 60.476,6.0513 89.29,22.418"
       id="path4290" /><path
       style="fill:none"
       inkscape:connector-curvature="0"
       d="m 327.83,262.16 c 14.424,-1.5518 49.465,5.3172 78.278,21.684"
       id="path4292" /><path
       style="fill:none"
       inkscape:connector-curvature="0"
       d="m 319.26,278.14 c 14.424,0.65046 46.529,6.0513 75.342,22.418"
       id="path4294" /><path
       style="fill:none"
       inkscape:connector-curvature="0"
       d="m 310.04,296.64 c 12.222,2.1186 42.124,4.5831 70.937,20.949"
       id="path4296" /></defs><sodipodi:namedview
     id="namedview1844"
     bordercolor="#666666"
     inkscape:pageshadow="2"
     guidetolerance="10"
     pagecolor="#ffffff"
     gridtolerance="10"
     inkscape:window-maximized="1"
     inkscape:zoom="1.7166071"
     objecttolerance="10"
     borderopacity="1"
     inkscape:current-layer="layer6"
     inkscape:cx="82.689294"
     inkscape:cy="162.98636"
     inkscape:window-y="-8"
     inkscape:window-x="-8"
     inkscape:window-width="1268"
     showgrid="false"
     inkscape:pageopacity="0"
     inkscape:window-height="621"
     fit-margin-top="0"
     fit-margin-left="0"
     fit-margin-right="0"
     fit-margin-bottom="0" /><g
     id="g783"
     transform="translate(22.747007,3.033996)"><defs
       id="defs785"><path
         id="SVGID_3_"
         inkscape:connector-curvature="0"
         d="M 46.092,126.37 C 39.231,117.82 39.771,99.861 44.136,88.961 49.704,75.062 56.828,58.917 81.415,44.26 92.923,37.4 120.74,29.679 138.72,31.801 c 17.979,2.12 57.478,9.184 74.709,23.857 17.229,14.674 28.896,39.233 28.896,59.646 0,20.411 -3.887,32.227 -10.495,42.833 -8.547,13.718 -22.112,23.438 -31.391,26.355 -9.277,2.914 -23.81,0.549 -28.881,2.914 -5.071,2.365 -11.689,-5.742 -11.689,-5.742 l -5.854,-11.223 c 0,0 1.094,-45.329 -5.799,-49.572 -6.893,-4.242 -16.771,3.134 -22.655,8.277 -5.883,5.143 -21.615,13.384 -29.038,13.384 -7.423,0 -30.113,-4.872 -35.68,-7.257 -5.567,-2.385 -14.752,-8.904 -14.752,-8.904" /></defs><clipPath
       id="SVGID_4_"><use
         id="use789"
         xlink:href="#SVGID_3_"
         height="274.961"
         width="255.118"
         y="0"
         x="0"
         overflow="visible"
         style="overflow:visible" /></clipPath></g><g
     id="g1836"
     transform="translate(22.747007,3.033996)"><defs
       id="defs1838"><path
         id="SVGID_30_"
         inkscape:connector-curvature="0"
         d="M 46.092,126.37 C 39.231,117.82 39.771,99.861 44.136,88.961 49.704,75.062 56.828,58.917 81.415,44.26 92.923,37.4 120.74,29.679 138.72,31.801 c 17.979,2.12 57.478,9.184 74.709,23.857 17.229,14.674 28.896,39.233 28.896,59.646 0,20.411 -3.887,32.227 -10.495,42.833 -8.547,13.718 -22.112,23.438 -31.391,26.355 -9.277,2.914 -23.81,0.549 -28.881,2.914 -5.071,2.365 -11.689,-5.742 -11.689,-5.742 l -5.854,-11.223 c 0,0 1.094,-45.329 -5.799,-49.572 -6.893,-4.242 -16.771,3.134 -22.655,8.277 -5.883,5.143 -21.615,13.384 -29.038,13.384 -7.423,0 -30.113,-4.872 -35.68,-7.257 -5.567,-2.385 -14.752,-8.904 -14.752,-8.904" /></defs><clipPath
       id="SVGID_31_"><use
         id="use1842"
         xlink:href="#SVGID_30_"
         height="274.961"
         width="255.118"
         y="0"
         x="0"
         overflow="visible"
         style="overflow:visible" /></clipPath></g><g
     id="layer1"
     inkscape:label="Head"
     inkscape:groupmode="layer"
     style="display:inline"
     transform="translate(22.747007,3.033996)"><path
       id="path250"
       d="m 246.91,86.307004 c 4.14916,-6.003684 -3.89115,-14.279508 -7.74,-20.48 -4.3728,-7.04456 -10.34572,-13.191954 -16.95,-18.205 -6.771,-5.139598 -14.72618,-8.640836 -22.65,-11.719 -11.1288,-4.323204 -22.85083,-7.103373 -34.58,-9.332 -12.33787,-2.344284 -24.88169,-4.296048 -37.44,-4.209 -9.67188,0.06704 -19.45348,1.104217 -28.787,3.641 -9.198238,2.500015 -18.686662,6.467961 -26.283,11.266 -7.596338,4.798039 -13.711412,10.150378 -19.001,16.724 -4.512771,5.608234 -7.588781,12.2909 -10.469,18.888 -4.232711,9.694964 -7.205984,19.922589 -9.898,30.152996 -1.279595,4.86281 -2.720783,9.76929 -2.959,14.792 -0.122826,2.58974 1.454371,5.22908 0.797,7.737 -3.415278,13.02957 -15.271752,22.20057 -23.326,32.997 -1.760198,2.35948 -4.7219307,4.09131 -5.46,6.941 -0.2985696,1.15278 0.1616746,2.40765 0.568,3.527 0.6323706,1.74206 1.3854271,3.63339 2.843,4.778 3.8688799,3.03818 11.554845,0.12043 14.11,4.324 2.843759,4.67836 -3.060313,10.6821 -2.958,16.156 0.0392,2.0975 1.302053,4.04705 1.364,6.144 0.03516,1.19024 -0.638639,2.3384 -0.567,3.527 0.206527,3.42661 2.365324,6.49871 2.844,9.898 0.158684,1.12688 0.169662,2.28872 0,3.414 -0.479357,3.17933 -1.836852,6.16354 -2.844,9.217 -0.465817,1.41226 -1.383934,2.72494 -1.479,4.209 -0.151205,2.36044 0.627656,4.73324 1.479,6.94 0.679116,1.76033 1.468705,3.60229 2.844,4.894 1.916318,1.79985 4.534245,2.77795 7.054,3.528 14.270965,4.24802 33.227946,-4.75164 44.375,5.12 2.30665,2.04273 1.462904,5.98623 2.162,8.987 1.252718,5.37713 -0.669927,12.7098 3.642,16.158 8.999839,7.19707 33.99074,0.21599 34.571,0 0.54,-0.201 1.144,-0.324 1.829,-0.324 0.15467,0 0.464,0 0.464,0 3.24867,0 6.19753,-0.72111 9.432,-0.289 4.84349,0.64706 9.77062,-0.0199 14.656,-0.107 0.46275,-0.008 0.91499,-0.2382 1.448,-0.271 3.59399,-0.2212 7.11583,0.36096 10.684,0.36 7.56307,-0.002 15.03001,-0.95003 22.646,0.152 0.60101,0.087 1.06534,0.479 1.564,0.479 0,0 28.91663,9.73842 35.832,0 2.46543,-3.4719 -3.03934,-7.96686 -4.21,-12.061 -1.37894,-4.82258 -2.45435,-9.73713 -3.301,-14.681 -0.76059,-4.44137 -1.59647,-8.91798 -1.592,-13.424 0.004,-4.43188 0.76438,-8.84608 1.592,-13.2 0.81253,-4.27455 1.69009,-8.5871 3.301,-12.629 2.5641,-6.43351 5.99734,-12.56238 10.013,-18.205 3.64323,-5.1193 8.65257,-9.12898 12.629,-13.994 3.31256,-4.0528 6.59527,-8.16748 9.331,-12.63 3.01419,-4.91674 5.88463,-10.01347 7.737,-15.475 2.38219,-7.02366 3.38485,-14.4774 4.21,-21.848 0.7768,-6.9387 1.26199,-13.977 0.683,-20.935 -0.59023,-7.09313 -8.72305,-15.425781 -4.214,-20.932996 8.4e-4,-0.001 0.003,0.0011 0.004,0 z"
       style="clip-rule:evenodd;fill:url(#linearGradient4969);fill-opacity:1;fill-rule:evenodd;stroke:none;filter:url(#filter4979)"
       inkscape:connector-curvature="0"
       sodipodi:nodetypes="ssssssssssssssssssssssssssssssssssssssssssssssssssssss"
       transform="matrix(-1,0,0,1,253.44319,0)" /><g
       mask="url(#SVGID_2_)"
       style="fill:#000000;filter:url(#filter4825)"
       id="g262"
       transform="translate(0,3.9205e-6)"><path
         inkscape:connector-curvature="0"
         style="clip-rule:evenodd;fill:#000000;fill-rule:evenodd"
         d="M 246.91,86.307 239.17,65.827 222.22,47.622 199.57,35.903 164.99,26.571 127.55,22.362 98.763,26.003 72.48,37.269 53.479,53.993 43.01,72.881 l -9.898,30.153 -2.959,14.792 0.797,7.737 -23.326,32.997 -5.46,6.941 0.568,3.527 2.843,4.778 14.11,4.324 -2.958,16.156 1.364,6.144 -0.567,3.527 2.844,9.898 0,3.414 -2.844,9.217 -1.479,4.209 1.479,6.94 2.844,4.894 7.054,3.528 44.375,5.12 2.162,8.987 3.642,16.158 34.571,0 c 0.54,-0.201 1.144,-0.324 1.829,-0.324 l 0.464,0 c 3.006,-1.232 6.39,-1.47 9.432,-0.289 4.885,-0.122 9.77,-0.146 14.656,-0.107 0.443,-0.134 0.915,-0.238 1.448,-0.271 3.594,-0.221 7.139,-0.046 10.684,0.36 7.552,-0.409 15.03,-0.95 22.646,0.152 0.601,0.087 1.12,0.252 1.564,0.479 l 35.832,0 -4.21,-12.061 -3.301,-14.681 -1.592,-13.424 1.592,-13.2 3.301,-12.629 10.013,-18.205 12.629,-13.994 9.331,-12.63 7.737,-15.475 4.21,-21.848 c 0,0 1.26761,-13.90943 0.683,-20.935 -0.58461,-7.02557 -1.14997,-13.095607 -4.214,-20.933 -4.9e-4,-0.0012 0.004,0 0.004,0 z"
         id="path264"
         sodipodi:nodetypes="ccccccccccccccccccccccccccccccccscccccccccccccccccczsc" /></g></g><g
     inkscape:groupmode="layer"
     id="layer2"
     inkscape:label="Gear"
     transform="translate(22.747007,3.033996)"><g
       id="g5040"
       transform="matrix(0.20101948,0,0,0.20659844,139.10614,58.818218)"><g
         transform="matrix(-90,0,0,-90,531.72957,174.23932)"
         inkscape:export-ydpi="90"
         inkscape:export-xdpi="90"
         id="g4415"><path
           style="color:#000000;fill:#5f5f5f;fill-rule:evenodd;stroke-width:0.01111111;stroke-linecap:round;stroke-linejoin:round"
           d="m 5.7055663,-2.2875506 c -0.048942,6.553e-4 -0.1196504,0.012308 -0.2207465,0.038563 -0.7189049,0.1867031 0.2632308,0.2700941 -0.3828558,0.6365017 -0.6460864,0.3664077 -0.2135132,-0.5192738 -0.7427517,0.00187 -0.5292385,0.521144 0.3630206,0.10226 -0.013303,0.74262129 C 3.9695856,-0.22763633 3.9013545,-1.2109575 3.7035917,-0.49501619 3.5058288,0.22092529 4.0691258,-0.58794279 4.0634007,0.15478841 4.0576807,0.89751967 3.506906,0.08004571 3.6936091,0.79895068 3.8803122,1.5178558 3.9637032,0.53569826 4.3301108,1.1817849 4.6965183,1.8278714 3.810837,1.3953198 4.3319808,1.9245584 4.8531248,2.4537967 4.4342407,1.5615378 5.0746022,1.9378614 5.7149599,2.3141849 4.7316389,2.3823945 5.4475803,2.5801572 6.1635217,2.7779202 5.3546543,2.214645 6.0973849,2.22037 6.8401161,2.22609 6.0226419,2.7768647 6.7415471,2.5901616 7.4604522,2.4034584 6.4782947,2.3200676 7.1243813,1.95366 7.7704679,1.5872523 7.3379163,2.4729357 7.8671547,1.95179 8.396393,1.430648 7.5041341,1.84953 7.8804577,1.2091684 8.2567812,0.56881037 8.3249908,1.5521319 8.5227536,0.83619023 8.7205165,0.12024864 8.157263,0.92911689 8.162988,0.18638563 8.168718,-0.55634552 8.7194393,0.26112843 8.5327362,-0.45777664 8.3460331,-1.1766815 8.2626639,-0.19454589 7.8962562,-0.84063251 7.5298487,-1.4867188 8.415532,-1.0541456 7.8943862,-1.583384 7.3732443,-2.1126225 7.7921045,-1.2203633 7.1517431,-1.596687 6.5113816,-1.9730106 7.4947244,-2.0412202 6.7787831,-2.238983 6.7340361,-2.251343 6.6952231,-2.260735 6.661639,-2.267477 6.1578711,-2.368566 6.8252926,-1.8738503 6.1289821,-1.8792175 5.4906973,-1.8841375 6.0046594,-2.2915549 5.7055663,-2.2875507 Z m 0.4420573,1.1252603 a 1.333333,1.333333 0 0 1 0.2260417,0.025239 1.333333,1.333333 0 0 1 1.047157,1.568142 1.333333,1.333333 0 0 1 -1.1743055,1.0648436 l 0,0.1782335 -0.2666666,0 0,-0.1782118 A 1.333333,1.333333 0 0 1 5.8526801,1.478226 1.333333,1.333333 0 0 1 4.8055448,-0.08991645 1.333333,1.333333 0 0 1 6.1476236,-1.1622903 Z"
           id="path4133"
           inkscape:connector-curvature="0" /><path
           id="path4142"
           d="m 5.7091501,-2.2748363 c -0.048942,6.552e-4 -0.1196504,0.012308 -0.2207465,0.038563 -0.7189049,0.186703 0.2632308,0.2700941 -0.3828558,0.6365016 -0.6460864,0.3664077 -0.2135132,-0.5192738 -0.7427517,0.00187 -0.5292385,0.521144 0.3630206,0.1022599 -0.013303,0.74262138 C 3.9731694,-0.21492193 3.9049383,-1.1982432 3.7071755,-0.48230179 3.5094126,0.23363969 4.0727096,-0.57522839 4.0669845,0.16750281 4.0612645,0.91023407 3.5104898,0.09276011 3.6971929,0.81166508 3.883896,1.53057 3.967287,0.54841266 4.3336946,1.1944992 4.7001021,1.8405857 3.8144208,1.4080341 4.3355646,1.9372727 4.8567049,2.466511 4.4378208,1.574252 5.0781823,1.9505757 5.7185437,2.3268992 4.7352227,2.3951087 5.4511641,2.5928715 6.1671055,2.7906345 5.3582381,2.2273593 6.1009687,2.2330843 6.8436999,2.2388043 6.0262257,2.7895789 6.7451309,2.6028758 7.464036,2.4161726 6.4818785,2.3327819 7.1279651,1.9663742 7.7740517,1.5999666 7.3415001,2.48565 7.8707385,1.9645042 8.3999768,1.4433658 7.5077179,1.8622479 7.8840415,1.2218863 8.260365,0.58152477 8.3285746,1.5648462 8.5263374,0.84890463 8.7241003,0.13296304 8.1608468,0.94183133 8.1665718,0.19910003 8.1723018,-0.54363112 8.7230231,0.27384283 8.53632,-0.44506224 8.3496169,-1.1639672 8.2662477,-0.18183149 7.89984,-0.82791812 7.5334325,-1.4740045 8.4191158,-1.0414314 7.89797,-1.5706697 7.3768281,-2.0999082 7.7956883,-1.207649 7.1553269,-1.5839727 c -0.6403615,-0.3763235 0.3429813,-0.4445331 -0.37296,-0.6422959 -0.044747,-0.01236 -0.08356,-0.021752 -0.1171441,-0.028494 -0.5037679,-0.101089 0.1636536,0.3936267 -0.5326569,0.3882595 -0.6382848,-0.00492 -0.1243227,-0.4123374 -0.4234158,-0.4083332 z m 0.4420573,1.1252603 a 1.333333,1.333333 0 0 1 0.2260417,0.025239 1.333333,1.333333 0 0 1 1.047157,1.5681421 1.333333,1.333333 0 0 1 -1.1743055,1.0648435 l 0,0.1782334 -0.2666666,0 0,-0.1782117 A 1.333333,1.333333 0 0 1 5.8562639,1.4909403 1.333333,1.333333 0 0 1 4.8091286,-0.07720205 1.333333,1.333333 0 0 1 6.1512074,-1.149576 Z"
           style="color:#000000;fill:#5f5f5f;fill-rule:evenodd;stroke-width:0.01111111;stroke-linecap:round;stroke-linejoin:round"
           inkscape:connector-curvature="0" /><path
           inkscape:connector-curvature="0"
           style="color:#000000;fill:#5f5f5f;fill-rule:evenodd;stroke-width:0.01111111;stroke-linecap:round;stroke-linejoin:round"
           d="m 5.7218738,-2.271257 c -0.048942,6.552e-4 -0.1196504,0.012308 -0.2207465,0.038563 -0.7189049,0.186703 0.2632308,0.2700941 -0.3828558,0.6365016 -0.6460864,0.3664077 -0.2135132,-0.5192738 -0.7427517,0.00187 -0.5292385,0.521144 0.3630206,0.1022599 -0.013303,0.74262135 C 3.9858931,-0.21134263 3.917662,-1.1946639 3.7198992,-0.47872249 3.5221363,0.23721899 4.0854333,-0.57164909 4.0797082,0.17108211 4.0739882,0.91381337 3.5232135,0.09633941 3.7099166,0.81524438 3.8966197,1.5341493 3.9800107,0.55199196 4.3464183,1.1980785 4.7128258,1.844165 3.8271445,1.4116135 4.3482883,1.940852 4.8694323,2.4700903 4.4505482,1.5778313 5.0909097,1.954155 5.7312674,2.3304785 4.7479464,2.398688 5.4638878,2.5964508 6.1798292,2.7942138 5.3709618,2.2309386 6.1136924,2.2366636 6.8564236,2.2423836 6.0389494,2.7931582 6.7578546,2.6064551 7.4767597,2.4197519 6.4946022,2.3363612 7.1406888,1.9699535 7.7867754,1.6035459 7.3542238,2.4892293 7.8834622,1.9680835 8.4127005,1.4469451 7.5204416,1.8658272 7.8967652,1.2254656 8.2730887,0.58510407 8.3412983,1.5684255 8.5390611,0.85248393 8.736824,0.13654234 8.1735705,0.94541063 8.1792955,0.20267933 8.1850255,-0.54005182 8.7357468,0.27742213 8.5490437,-0.44148294 8.3623406,-1.1603879 8.2789714,-0.17825219 7.9125637,-0.82433875 7.5461562,-1.4704252 8.4318395,-1.0378521 7.9106937,-1.5670904 c -0.5211382,-0.5292385 -0.102278,0.3630207 -0.7426394,-0.013303 -0.6403615,-0.3763235 0.3429813,-0.4445331 -0.37296,-0.6422959 -0.044747,-0.01236 -0.08356,-0.021752 -0.1171441,-0.028494 -0.5037716,-0.101089 0.1636499,0.3936267 -0.5326606,0.3882595 -0.6382848,-0.00492 -0.1243227,-0.4123374 -0.4234158,-0.4083332 z m 0.4420573,1.1252603 a 1.333333,1.333333 0 0 1 0.2260417,0.025239 1.333333,1.333333 0 0 1 1.047157,1.5681421 1.333333,1.333333 0 0 1 -1.1743055,1.0648435 l 0,0.1782334 -0.2666666,0 0,-0.1782117 A 1.333333,1.333333 0 0 1 5.8689876,1.4945196 1.333333,1.333333 0 0 1 4.8218523,-0.07362275 1.333333,1.333333 0 0 1 6.1639311,-1.1459967 Z"
           id="path4144" /><path
           id="path4146"
           d="m 5.7127341,-2.2784156 c -0.048942,6.552e-4 -0.1196504,0.012308 -0.2207465,0.038563 -0.7189049,0.186703 0.2632308,0.2700941 -0.3828558,0.6365016 -0.6460864,0.3664077 -0.2135132,-0.5192738 -0.7427517,0.00187 -0.5292385,0.521144 0.3630206,0.1022599 -0.013303,0.74262111 -0.3763237,0.6403584 -0.4445548,-0.34296261 -0.6423176,0.37297854 -0.1977629,0.71594148 0.3655341,-0.0929266 0.359809,0.6498046 C 4.0648485,0.90665451 3.5140738,0.08918055 3.7007769,0.80808552 3.88748,1.5269907 3.970871,0.5448331 4.3372786,1.1909199 4.7036861,1.8370064 3.8180048,1.4044548 4.3391486,1.9336934 4.8602889,2.4629317 4.4414048,1.5706727 5.0817663,1.9469964 5.7221277,2.3233199 4.7388067,2.3915294 5.4547481,2.5892922 6.1706895,2.7870552 5.3618221,2.22378 6.1045527,2.229505 6.8472839,2.235225 6.0298097,2.7859996 6.7487149,2.5992965 7.46762,2.4125933 6.4854625,2.3292026 7.1315491,1.9627949 7.7776357,1.5963873 7.3450841,2.4820707 7.8743225,1.9609249 8.4035608,1.4397865 7.5113019,1.8586686 7.8876255,1.218307 8.263949,0.57794521 8.3321586,1.5612669 8.5299214,0.84532507 8.7276843,0.12938348 8.1644308,0.93825177 8.1701558,0.19552047 8.1758858,-0.54721068 8.7266071,0.27026327 8.539904,-0.4486418 8.3532009,-1.1675465 8.2698317,-0.18541105 7.903424,-0.83149769 7.5370165,-1.4775838 8.4226998,-1.0450107 7.901554,-1.574249 7.3804121,-2.1034875 7.7992723,-1.2112283 7.1589109,-1.587552 c -0.6403615,-0.3763235 0.3429813,-0.4445331 -0.37296,-0.6422959 -0.044747,-0.01236 -0.08356,-0.021752 -0.1171441,-0.028494 -0.5037679,-0.101089 0.1636536,0.3936267 -0.5326569,0.3882595 -0.6382848,-0.00492 -0.1243227,-0.4123374 -0.4234158,-0.4083332 z m 0.4420573,1.1252603 a 1.333333,1.333333 0 0 1 0.2260417,0.025239 1.333333,1.333333 0 0 1 1.047157,1.56814184 1.333333,1.333333 0 0 1 -1.1743055,1.06484376 l 0,0.1782334 -0.2666666,0 0,-0.1782117 A 1.333333,1.333333 0 0 1 5.8598479,1.487361 1.333333,1.333333 0 0 1 4.8127126,-0.08078161 1.333333,1.333333 0 0 1 6.1547914,-1.1531553 Z"
           style="color:#000000;fill:#5f5f5f;fill-rule:evenodd;stroke-width:0.01111111;stroke-linecap:round;stroke-linejoin:round"
           inkscape:connector-curvature="0" /><path
           inkscape:connector-curvature="0"
           style="color:#000000;fill:#6e6e6e;fill-rule:evenodd;stroke-width:0.01111111;stroke-linecap:round;stroke-linejoin:round"
           d="m 5.7310135,-2.262122 c -0.048942,6.552e-4 -0.1196504,0.012308 -0.2207465,0.038563 -0.7189049,0.186703 0.2632308,0.2700941 -0.3828558,0.6365016 -0.6460864,0.3664077 -0.2135132,-0.5192738 -0.7427517,0.00187 -0.5292385,0.521144 0.3630206,0.1022599 -0.013303,0.74262128 C 3.9950328,-0.20220769 3.9268017,-1.1855289 3.7290389,-0.46958755 3.531276,0.24635393 4.094573,-0.56251415 4.0888479,0.18021705 4.0831279,0.92294831 3.5323532,0.10547435 3.7190563,0.82437932 3.9057594,1.5432843 3.9891504,0.5611269 4.355558,1.2072135 4.7219655,1.8533 3.8362842,1.4207485 4.357428,1.949987 4.8785683,2.4792253 4.4596842,1.5869663 5.1000457,1.96329 5.7404071,2.3396135 4.7570861,2.407823 5.4730275,2.6055858 6.1889689,2.8033488 5.3801015,2.2400736 6.1228321,2.2457986 6.8655633,2.2515186 6.0480891,2.8022932 6.7669943,2.6155901 7.4858994,2.4288869 6.5037419,2.3454962 7.1498285,1.9790885 7.7959151,1.6126809 7.3633635,2.4983643 7.8926019,1.9772185 8.4218402,1.4560801 7.5295813,1.8749622 7.9059049,1.2346006 8.2822284,0.59423901 8.350438,1.5775605 8.5482008,0.86161887 8.7459637,0.14567728 8.1827102,0.95454553 8.1884352,0.21181427 8.1941652,-0.53091688 8.7448865,0.28655707 8.5581834,-0.432348 8.3714803,-1.1512529 8.2881111,-0.16911725 7.9217034,-0.81520382 7.5552959,-1.4612902 8.4409792,-1.0287171 7.9198371,-1.5579554 7.3986952,-2.0871939 7.8175554,-1.1949347 7.177194,-1.5712584 6.5368325,-1.9475819 7.5201753,-2.0157915 6.804234,-2.2135543 6.759487,-2.2259143 6.720674,-2.2353063 6.6870899,-2.2420483 6.1833183,-2.3431373 6.8507398,-1.8484216 6.1544293,-1.8537888 5.5161445,-1.8587088 6.0301066,-2.2661262 5.7310135,-2.262122 Z m 0.4420573,1.1252603 a 1.333333,1.333333 0 0 1 0.2260417,0.025239 1.333333,1.333333 0 0 1 1.047157,1.56814204 A 1.333333,1.333333 0 0 1 6.271964,1.5213629 l 0,0.1782334 -0.2666666,0 0,-0.1782117 A 1.333333,1.333333 0 0 1 5.8781273,1.5036546 1.333333,1.333333 0 0 1 4.830992,-0.06448781 1.333333,1.333333 0 0 1 6.1730708,-1.1368617 Z"
           id="path4148" /><path
           id="path4164"
           d="m 5.7401532,-2.2529871 c -0.048942,6.552e-4 -0.1196504,0.012308 -0.2207465,0.038563 -0.7189049,0.186703 0.2632308,0.2700941 -0.3828558,0.6365016 -0.6460864,0.3664077 -0.2135132,-0.5192738 -0.7427517,0.00187 -0.5292385,0.521144 0.3630206,0.1022599 -0.013303,0.74262141 C 4.0041725,-0.19307272 3.9359414,-1.176394 3.7381786,-0.46045258 3.5404157,0.2554889 4.1037127,-0.55337918 4.0979876,0.18935202 4.0922676,0.93208328 3.5414929,0.11460932 3.728196,0.83351429 3.9148991,1.5524192 3.9982901,0.57026187 4.3646977,1.2163484 4.7311052,1.8624349 3.8454239,1.4298834 4.3665677,1.9591219 4.887708,2.4883602 4.4688239,1.5961012 5.1091854,1.9724249 5.7495468,2.3487484 4.7662258,2.4169579 5.4821672,2.6147207 6.1981086,2.8124837 5.3892412,2.2492085 6.1319718,2.2549335 6.874703,2.2606535 6.0572288,2.8114281 6.776134,2.624725 7.4950391,2.4380218 6.5128816,2.3546311 7.1589682,1.9882234 7.8050548,1.6218158 7.3725032,2.5074992 7.9017416,1.9863534 8.4309799,1.465215 7.538721,1.8840971 7.9150446,1.2437355 8.2913681,0.60337398 8.3595777,1.5866954 8.5573405,0.87075384 8.7551034,0.15481225 8.1918499,0.96368054 8.1975749,0.22094924 8.2033049,-0.52178191 8.7540262,0.29569204 8.5673231,-0.42321303 8.38062,-1.142118 8.2972508,-0.15998228 7.9308431,-0.80606889 7.5644356,-1.4521553 8.4501189,-1.0195822 7.9289731,-1.5488205 7.4078312,-2.078059 7.8266914,-1.1857998 7.18633,-1.5621235 6.5459685,-1.938447 7.5293113,-2.0066566 6.81337,-2.2044194 6.768623,-2.2167794 6.72981,-2.2261714 6.6962259,-2.2329134 6.192458,-2.3340024 6.8598795,-1.8392867 6.163569,-1.8446539 5.5252842,-1.8495739 6.0392463,-2.2569913 5.7401532,-2.2529871 Z m 0.4420573,1.1252603 a 1.333333,1.333333 0 0 1 0.2260417,0.025239 1.333333,1.333333 0 0 1 1.047157,1.56814211 1.333333,1.333333 0 0 1 -1.1743055,1.06484349 l 0,0.1782334 -0.2666666,0 0,-0.1782117 A 1.333333,1.333333 0 0 1 5.887267,1.5127895 1.333333,1.333333 0 0 1 4.8401317,-0.05535284 1.333333,1.333333 0 0 1 6.1822105,-1.1277268 Z"
           style="color:#000000;fill:#737373;fill-rule:evenodd;stroke-width:0.01111111;stroke-linecap:round;stroke-linejoin:round"
           inkscape:connector-curvature="0" /><path
           inkscape:connector-curvature="0"
           style="color:#000000;fill:#7d7d7d;fill-rule:evenodd;stroke-width:0.01111111;stroke-linecap:round;stroke-linejoin:round"
           d="m 5.7492929,-2.2438522 c -0.048942,6.552e-4 -0.1196504,0.012308 -0.2207465,0.038563 -0.7189049,0.186703 0.2632308,0.2700941 -0.3828558,0.6365016 -0.6460864,0.3664077 -0.2135132,-0.5192738 -0.7427517,0.00187 -0.5292385,0.521144 0.3630206,0.1022599 -0.013303,0.74262134 C 4.0133122,-0.1839379 3.9450811,-1.1672591 3.7473183,-0.45131776 3.5495554,0.26462372 4.1128524,-0.54424436 4.1071273,0.19848684 4.1014073,0.9412181 3.5506326,0.12374414 3.7373357,0.84264911 3.9240388,1.5615541 4.0074298,0.57939669 4.3738374,1.2254833 4.7402449,1.8715698 3.8545636,1.4390183 4.3757074,1.9682568 4.8968477,2.4974951 4.4779636,1.6052361 5.1183251,1.9815598 5.7586865,2.3578833 4.7753655,2.4260928 5.4913069,2.6238556 6.2072483,2.8216186 5.3983809,2.2583434 6.1411115,2.2640684 6.8838427,2.2697884 6.0663685,2.820563 6.7852737,2.6338599 7.5041788,2.4471567 6.5220213,2.363766 7.1681079,1.9973583 7.8141945,1.6309507 7.3816429,2.5166341 7.9108813,1.9954883 8.4401196,1.4743499 7.5478607,1.893232 7.9241843,1.2528704 8.3005078,0.6125088 8.3687174,1.5958303 8.5664802,0.87988866 8.7642431,0.16394707 8.2009896,0.97281532 8.2067146,0.23008406 8.2124446,-0.51264709 8.7631659,0.30482686 8.5764628,-0.41407821 8.3897597,-1.1329831 8.3063905,-0.15084746 7.9399828,-0.79693406 7.5735753,-1.4430204 8.4592586,-1.0104473 7.9381165,-1.5396856 7.4169746,-2.0689241 7.8358348,-1.1766649 7.1954734,-1.5529886 6.5551119,-1.9293121 7.5384547,-1.9975217 6.8225134,-2.1952845 6.7777664,-2.2076445 6.7389534,-2.2170365 6.7053693,-2.2237785 6.2015977,-2.3248675 6.8690192,-1.8301518 6.1727087,-1.835519 5.5344239,-1.840439 6.048386,-2.2478564 5.7492929,-2.2438522 Z m 0.4420573,1.1252603 a 1.333333,1.333333 0 0 1 0.2260417,0.025239 1.333333,1.333333 0 0 1 1.047157,1.56814203 1.333333,1.333333 0 0 1 -1.1743055,1.06484357 l 0,0.1782334 -0.2666666,0 0,-0.1782117 A 1.333333,1.333333 0 0 1 5.8964067,1.5219244 1.333333,1.333333 0 0 1 4.8492714,-0.04621802 1.333333,1.333333 0 0 1 6.1913502,-1.1185919 Z"
           id="path4166" /><path
           id="path4168"
           d="m 5.7584325,-2.2347172 c -0.048942,6.552e-4 -0.1196504,0.012308 -0.2207465,0.038563 -0.7189049,0.186703 0.2632308,0.2700941 -0.3828558,0.6365016 -0.6460864,0.3664077 -0.2135132,-0.5192738 -0.7427517,0.00187 -0.5292385,0.521144 0.3630206,0.1022599 -0.013303,0.74262117 C 4.0224518,-0.17480306 3.9542207,-1.1581241 3.7564579,-0.44218292 3.558695,0.27375856 4.121992,-0.53510952 4.1162669,0.20762168 4.1105469,0.95035294 3.5597722,0.13287898 3.7464753,0.85178395 3.9331784,1.5706891 4.0165694,0.58853153 4.382977,1.2346183 4.7493845,1.8807048 3.8637032,1.4481533 4.384847,1.9773918 4.9059873,2.5066301 4.4871032,1.6143711 5.1274647,1.9906948 5.7678261,2.3670183 4.7845051,2.4352278 5.5004465,2.6329906 6.2163879,2.8307536 5.4075205,2.2674784 6.1502511,2.2732034 6.8929823,2.2789234 6.0755081,2.829698 6.7944133,2.6429949 7.5133184,2.4562917 6.5311609,2.372901 7.1772475,2.0064933 7.8233341,1.6400857 7.3907825,2.5257691 7.9200209,2.0046233 8.4492592,1.4834849 7.5570003,1.902367 7.9333239,1.2620054 8.3096474,0.62164364 8.377857,1.6049653 8.5756198,0.8890235 8.7733827,0.17308191 8.2101292,0.9819502 8.2158542,0.2392189 8.2215842,-0.50351225 8.7723055,0.3139617 8.5856024,-0.40494337 8.3988993,-1.1238481 8.3155301,-0.14171262 7.9491224,-0.78779923 7.5827149,-1.4338854 8.4683982,-1.0013125 7.9472524,-1.5305506 7.4261105,-2.0597891 7.8449707,-1.1675299 7.2046093,-1.5438536 c -0.6403615,-0.3763235 0.3429813,-0.4445331 -0.37296,-0.6422959 -0.044747,-0.01236 -0.08356,-0.021752 -0.1171441,-0.028494 -0.5037679,-0.101089 0.1636536,0.3936267 -0.5326569,0.3882595 -0.6382848,-0.00492 -0.1243227,-0.4123374 -0.4234158,-0.4083332 z m 0.4420573,1.1252603 a 1.333333,1.333333 0 0 1 0.2260417,0.025239 1.333333,1.333333 0 0 1 1.047157,1.56814187 A 1.333333,1.333333 0 0 1 6.299383,1.5487677 l 0,0.1782334 -0.2666666,0 0,-0.1782117 A 1.333333,1.333333 0 0 1 5.9055463,1.5310594 1.333333,1.333333 0 0 1 4.858411,-0.03708318 1.333333,1.333333 0 0 1 6.2004898,-1.1094569 Z"
           style="color:#000000;fill:#878787;fill-rule:evenodd;stroke-width:0.01111111;stroke-linecap:round;stroke-linejoin:round"
           inkscape:connector-curvature="0" /><path
           inkscape:connector-curvature="0"
           style="color:#000000;fill:#b4b4b4;fill-rule:evenodd;stroke-width:0.01111111;stroke-linecap:round;stroke-linejoin:round;filter:url(#filter4411)"
           d="m 5.7449138,-2.2426851 c -0.048942,6.552e-4 -0.1196504,0.012308 -0.2207465,0.038563 -0.7189049,0.186703 0.2632308,0.2700941 -0.3828558,0.6365016 -0.6460864,0.3664077 -0.2135132,-0.5192738 -0.7427517,0.00187 -0.5292385,0.521144 0.3630206,0.1022599 -0.013303,0.74262123 C 4.0089331,-0.18277083 3.940702,-1.166092 3.7429392,-0.45015069 3.5451763,0.26579079 4.1084733,-0.54307729 4.1027482,0.19965391 4.0970282,0.94238517 3.5462535,0.12491121 3.7329566,0.84381618 3.9196597,1.5627212 4.0030507,0.58056376 4.3694583,1.2266504 4.7358658,1.8727369 3.8501845,1.4401854 4.3713283,1.9694239 4.8924686,2.4986622 4.4735845,1.6064032 5.113946,1.9827269 5.7543074,2.3590504 4.7709864,2.4272599 5.4869278,2.6250227 6.2028692,2.8227857 5.3940018,2.2595105 6.1367324,2.2652355 6.8794636,2.2709555 6.0619894,2.8217301 6.7808946,2.635027 7.4997997,2.4483238 6.5176422,2.3649331 7.1637288,1.9985254 7.8098154,1.6321178 7.3772638,2.5178012 7.9065022,1.9966554 8.4357405,1.475517 7.5434816,1.8943991 7.9198052,1.2540375 8.2961287,0.61367587 8.3643383,1.5969974 8.5621011,0.88105573 8.759864,0.16511414 8.1966105,0.97398239 8.2023355,0.23125113 8.2080655,-0.51148002 8.7587868,0.30599393 8.5720837,-0.41291114 8.3853806,-1.131816 8.3020114,-0.14968039 7.9356037,-0.79576697 7.5691962,-1.4418533 8.4548795,-1.0092803 7.9337337,-1.5385185 7.4125918,-2.067757 7.831452,-1.1754978 7.1910906,-1.5518215 6.5507291,-1.928145 7.5340719,-1.9963546 6.8181306,-2.1941174 c -0.044747,-0.01236 -0.08356,-0.021752 -0.1171441,-0.028494 -0.5037716,-0.101089 0.1636499,0.3936267 -0.5326606,0.3882595 -0.6382848,-0.00492 -0.1243227,-0.4123374 -0.4234158,-0.4083332 z m 0.4420573,1.1252603 a 1.333333,1.333333 0 0 1 0.2260417,0.025239 1.333333,1.333333 0 0 1 1.047157,1.568142 1.333333,1.333333 0 0 1 -1.1743055,1.0648436 l 0,0.1782334 -0.2666666,0 0,-0.1782117 A 1.333333,1.333333 0 0 1 5.8920276,1.5230915 1.333333,1.333333 0 0 1 4.8448923,-0.04505095 1.333333,1.333333 0 0 1 6.1869711,-1.1174248 Z"
           id="path4170" /></g></g></g><g
     inkscape:groupmode="layer"
     id="layer3"
     inkscape:label="Atom"
     transform="translate(22.747007,3.033996)"><g
       id="g5161"
       transform="translate(4.660356,-29.127225)"><path
         inkscape:connector-curvature="0"
         id="path3682"
         style="fill:none;stroke:#ffffff;stroke-width:0.33591977;stroke-opacity:1"
         d="m 60.557633,102.47543 a 6.850459,29.792038 0 0 1 -13.700918,0 6.850459,29.792038 0 1 1 13.700918,0 z" /><path
         inkscape:connector-curvature="0"
         id="path3690"
         style="fill:url(#radialGradient4597)"
         d="m 56.942499,102.47651 a 3.473253,3.5963397 0 1 1 -6.945909,0 3.473253,3.5963397 0 1 1 6.945909,0 z" /><path
         inkscape:connector-curvature="0"
         id="path4599"
         style="fill:none;stroke:#ffffff;stroke-width:0.33592492;stroke-opacity:1"
         d="m 58.551421,97.572515 a 29.611438,6.8924526 45.393174 0 1 -9.687978,9.808015 29.611438,6.8924526 45.393174 0 1 9.687978,-9.808015 z" /><path
         inkscape:connector-curvature="0"
         id="path4601"
         style="fill:none;stroke:#ffffff;stroke-width:0.33592492;stroke-opacity:1"
         d="m 58.549371,107.38119 a 6.8924519,29.611435 44.606826 0 1 -9.687979,-9.80801 6.8924519,29.611435 44.606826 0 1 9.687979,9.80801 z" /><path
         inkscape:connector-curvature="0"
         id="path4603"
         style="fill:none;stroke:#ffffff;stroke-width:0.33813339;stroke-opacity:1"
         d="m 54.101953,109.41122 a 29.821329,6.9342237 0 1 1 0,-13.868444 29.821329,6.9342237 0 0 1 0,13.868444 z" /><path
         inkscape:connector-curvature="0"
         id="path4607"
         style="fill:url(#radialGradient4239);fill-rule:evenodd"
         d="m 37.983951,90.968075 a 2.1965275,2.3035583 0 1 1 -4.393055,0 2.1965275,2.3035583 0 1 1 4.393055,0 z" /><path
         inkscape:connector-curvature="0"
         id="path5508"
         style="fill:url(#radialGradient4241);fill-rule:evenodd"
         d="m 73.663867,113.02612 a 2.1965275,2.3035583 0 1 1 -4.393055,0 2.1965275,2.3035583 0 1 1 4.393055,0 z" /><path
         inkscape:connector-curvature="0"
         id="path5512"
         style="fill:url(#radialGradient4243);fill-rule:evenodd"
         d="m 65.61332,85.214234 a 2.1965275,2.3035583 0 1 1 -4.393055,0 2.1965275,2.3035583 0 1 1 4.393055,0 z" /><path
         inkscape:connector-curvature="0"
         id="path5516"
         style="fill:url(#radialGradient4245);fill-rule:evenodd"
         d="m 45.088603,120.2188 a 2.1965275,2.3035583 0 1 1 -4.393055,0 2.1965275,2.3035583 0 1 1 4.393055,0 z" /><path
         inkscape:connector-curvature="0"
         id="path5520"
         style="fill:url(#radialGradient4247);fill-rule:evenodd"
         d="m 77.13712,97.521238 a 2.1965275,2.3035583 0 1 1 -4.393055,0 2.1965275,2.3035583 0 1 1 4.393055,0 z" /><path
         inkscape:connector-curvature="0"
         id="path5524"
         style="fill:url(#radialGradient4249);fill-rule:evenodd"
         d="m 35.14209,107.43118 a 2.1965275,2.3035583 0 1 1 -4.393055,0 2.1965275,2.3035583 0 1 1 4.393055,0 z" /><path
         inkscape:connector-curvature="0"
         id="path5528"
         style="fill:url(#radialGradient4251);fill-rule:evenodd"
         d="m 60.403441,124.21239 a 2.1965275,2.3035583 0 1 1 -4.393055,0 2.1965275,2.3035583 0 1 1 4.393055,0 z" /><path
         inkscape:connector-curvature="0"
         id="path5532"
         style="fill:url(#radialGradient5500);fill-rule:evenodd"
         d="m 51.403717,80.099426 a 2.1965275,2.3035583 0 1 1 -4.393055,0 2.1965275,2.3035583 0 1 1 4.393055,0 z" /></g></g><g
     inkscape:groupmode="layer"
     id="layer4"
     inkscape:label="Lamp"
     transform="translate(22.747007,3.033996)"><g
       transform="matrix(0.35046812,-0.13876014,0.15200232,0.38391403,-32.559714,-289.22567)"
       id="g4656"
       inkscape:export-xdpi="90"
       inkscape:export-ydpi="90"><path
         d="m 20.125,984.61 c -1.8716,8.0004 15.772,25.42 16.125,37.125 7.6017,-0.2173 16.146,-1.7539 22.25,0.125 4.229,5.2987 0.16668,-8.7007 4.5,-13.875 16.12,-12.5 18.379,-25 7.5,-37.5 -9.1855,-12.554 -45.627,-16.009 -50.375,14.125 z"
         inkscape:connector-curvature="0"
         style="fill:url(#radialGradient4110)"
         sodipodi:nodetypes="cccccc"
         id="path3792" /><path
         d="m 33.59,1027.2 c 7.3592,4.0443 15.654,3.6643 24.438,0.9736 1.0486,-0.6721 4.9218,-2.524 0.14604,-3.2616 -11.133,-1.0795 -18.282,-0.5202 -23.465,0.3407 -1.6972,0.6491 -3.0042,1.2982 -1.1197,1.9473 z"
         inkscape:connector-curvature="0"
         style="fill:url(#radialGradient4086)"
         sodipodi:nodetypes="ccccc"
         id="path3780" /><path
         d="m 28.915,1017 c -1.3817,-6.4706 -8.0396,-13.828 -9.2254,-15.972 -3.5934,-8.0022 -7.2025,-20.092 2.7538,-30.568 10.932,-11.73 34.797,-14.676 50.395,0.41308 3.8927,4.9609 14.91,17.57 -5.5077,40.34402 l -2.8915,7.16 -2.7538,6.6092 -1.6523,2.0654 c -2.7787,3.1215 -18.871,5.3875 -26.708,0.1924 -3.5684,-2.4414 -3.9977,-8.8211 -4.4109,-10.244 z"
         inkscape:connector-curvature="0"
         style="fill:url(#radialGradient4201-2);filter:url(#filter4327)"
         sodipodi:nodetypes="cccccccccc"
         id="path2996" /><path
         d="m 42.596,1027.3 0.48682,-16.746 -6.8641,-22.491 c 7.3186,1.3169 14.996,3.8517 20.641,2.3854 -3.5561,7.5327 -5.4231,13.489 -7.0588,19.229 l -0.87627,17.379"
         inkscape:connector-curvature="0"
         style="fill:none;stroke:#000000;stroke-width:0.30000001"
         sodipodi:nodetypes="ccccccc"
         id="path3782" /><path
         d="m 42.45,1011.2 c -0.32455,2.0284 -0.34033,3.748 -0.14604,5.2576 2.6613,1.0157 5.3225,0.9891 7.9838,0.5842 0.34275,-2.0494 0.6182,-4.1212 0.19473,-6.426 -3.4552,-1.4385 -5.8632,-0.6778 -8.0325,0.5842 z"
         inkscape:connector-curvature="0"
         style="fill:url(#radialGradient4082)"
         sodipodi:nodetypes="ccccc"
         id="path3788" /><path
         d="m 50.288,990.83 -3.6024,7.1075 -0.48682,12.024"
         inkscape:connector-curvature="0"
         style="fill:none;stroke:#000000;stroke-width:0.30000001"
         id="path3784" /><path
         d="m 47.367,998.03 c 0.72854,0.30326 1.2909,0.108 1.8986,0.0487 3.5359,-0.77392 6.6277,-4.6565 9.931,-7.0588 -0.5525,-0.51295 -0.47522,-1.3694 -2.3367,-1.1684 -0.1681,0.8279 -0.48784,1.7695 0.34077,1.8499 l 0.68154,0.0487"
         inkscape:connector-curvature="0"
         style="fill:none;stroke:#000000;stroke-width:0.30000001"
         sodipodi:nodetypes="cccccc"
         id="path3786" /><path
         d="m 27.875,974.24 c 2.1888,-1.7823 3.8728,-3.9684 7.625,-4.5 28.417,-15.336 38.612,10.442 36.5,10.75 -3.1894,-1.2121 -5.7092,-1.0851 -8.25,-1 -5.4303,-3.0718 -11.739,-5.3971 -23.75,-2.875 -6.5633,-0.0583 -8.7111,-1.4008 -12.125,-2.375 z"
         inkscape:connector-curvature="0"
         style="fill:url(#radialGradient4077)"
         sodipodi:nodetypes="cccccc"
         id="path3790" /><path
         d="M 20.375,984.11 Z"
         inkscape:connector-curvature="0"
         style="fill:none;stroke:#000000;stroke-width:0.30000001"
         id="path3794" /><path
         d="m 27.5,994.24 c 2.43,6.1418 6.7434,12.702 6.5,18.25 3.2618,0.034 7.3329,1.4159 8.75,-1.625 l 8.625,1.25 c 2.5368,-0.3873 4.9102,0.2055 7.75,-2 1.6257,-3.9303 4.7756,-7.3526 4.625,-11.875 -9.3164,-2.8081 -12.809,-0.85137 -18.875,-1 -9.147,-3.0971 -13.471,-3.18 -17.375,-3 z"
         inkscape:connector-curvature="0"
         style="fill:url(#radialGradient4071);stroke:url(#radialGradient4073);stroke-width:0.30000001"
         sodipodi:nodetypes="cccccccc"
         id="path3796" /><path
         sodipodi:nodetypes="csssssc"
         transform="matrix(0.83558243,0,0,1.0235244,7.8942091,-23.293429)"
         inkscape:connector-curvature="0"
         id="path4414"
         d="m 31.466252,989.42749 c -0.530331,-3.71231 -2.121321,-4.06586 0.353553,-4.59619 2.474874,-0.53033 13.435029,3.35875 17.324116,3.18198 3.889087,-0.17678 6.302957,-2.47488 10.429825,-0.70711 1.974128,0.84563 1.59099,7.6014 -1.59099,8.13173 -3.181981,0.53033 -10.606602,-0.53033 -12.551146,-1.59099 -1.944543,-1.06066 -13.965358,-4.41942 -13.965358,-4.41942 z"
         style="opacity:0.72899996;fill:#fff88a;fill-opacity:1;fill-rule:evenodd;stroke:none;stroke-width:1px;stroke-linecap:butt;stroke-linejoin:miter;stroke-opacity:1;filter:url(#filter4452)" /><path
         inkscape:connector-curvature="0"
         id="path4206"
         d="m 34.825009,987.65973 15.202796,3.35876 6.894291,-0.53033 -0.883884,1.94454"
         style="fill:none;fill-rule:evenodd;stroke:#fff500;stroke-width:1px;stroke-linecap:butt;stroke-linejoin:miter;stroke-opacity:1;filter:url(#filter4272)" /><path
         style="fill:none;fill-rule:evenodd;stroke:#fffdd3;stroke-width:1px;stroke-linecap:butt;stroke-linejoin:miter;stroke-opacity:1;filter:url(#filter4410)"
         d="m 34.825009,987.65973 15.202796,3.35876 6.894291,-0.53033 -0.883884,1.94454"
         id="path4276"
         inkscape:connector-curvature="0" /><path
         sodipodi:nodetypes="ccccc"
         inkscape:connector-curvature="0"
         id="path4456"
         d="m 41.365747,1032.2074 c 0,0 -2.121321,-6.8943 0,-7.2478 2.12132,-0.3536 8.662057,-0.5304 9.192387,0.8839 0.530331,1.4142 -0.707106,6.7176 -0.707106,6.7176 z"
         style="opacity:0.98200001;fill:#c8b7b7;fill-rule:evenodd;stroke:none;stroke-width:1px;stroke-linecap:butt;stroke-linejoin:miter;stroke-opacity:1;filter:url(#filter4462)" /><g
         id="g4466"><path
           id="path3766"
           sodipodi:nodetypes="ccccc"
           style="fill:url(#radialGradient4104)"
           inkscape:connector-curvature="0"
           d="m 32.739,1026.9 c -0.32712,1.6018 1.405,3.7332 1.1218,4.4742 3.5902,2.422 9.965,4.0591 25.485,-0.4644 0.35274,-0.5511 0.41553,-1.8754 0.3811,-3.459 -12.76,4.9719 -22.918,1.8613 -26.988,-0.5508 z" /><path
           id="path3768"
           sodipodi:nodetypes="ccccc"
           style="fill:url(#radialGradient4101)"
           inkscape:connector-curvature="0"
           d="m 34.174,1031.1 c -1.6358,1.1155 -1.2315,2.129 -0.29209,3.1157 14.604,4.5295 24.652,0.1402 25.368,-1.1166 0.86135,-0.8712 0.15246,-2.3336 -0.20648,-2.3951 -10.943,2.9043 -19.233,2.6439 -24.87,0.396 z" /><path
           id="path3770"
           sodipodi:nodetypes="ccccc"
           style="fill:url(#radialGradient4098)"
           inkscape:connector-curvature="0"
           d="m 33.961,1034.2 c -1.7207,1.1351 -0.72603,2.5019 -0.07461,3.3874 8.4259,1.6709 16.867,1.9319 25.164,-1.6815 0.65825,-0.8453 1.0865,-1.7399 -0.04868,-2.9695 -5.6791,2.6009 -11.489,3.7588 -25.041,1.2636 z" /><path
           id="path3772"
           sodipodi:nodetypes="ccccc"
           style="fill:url(#radialGradient4095)"
           inkscape:connector-curvature="0"
           d="m 33.927,1037.1 c -1.1562,0.9899 -0.43987,2.4217 0.15502,3.4115 10.765,1.8104 19.191,1.1689 24.774,-1.6814 0.86935,-1.0647 1.2381,-1.8219 0.26037,-3.1146 -12.68,4.3722 -18.14,2.1531 -25.19,1.3845 z" /><path
           id="path3776"
           sodipodi:nodetypes="ccccc"
           style="fill:url(#radialGradient4092)"
           inkscape:connector-curvature="0"
           d="m 34.028,1040.3 c -0.37481,1.0883 -0.2256,1.8489 0.43813,2.2881 6.6222,2.2108 15.704,3.2742 23.708,-0.5842 2.0118,-0.9736 1.3124,-2.4473 0.7789,-3.4209 -10.596,3.7485 -17.586,2.7288 -24.925,1.717 z" /><path
           id="path3778"
           sodipodi:nodetypes="ccccc"
           style="fill:url(#linearGradient4089)"
           inkscape:connector-curvature="0"
           d="m 34.369,1042.1 c 2.7173,1.8012 3.913,4.0862 10.126,6.3695 1.0122,0.5748 1.8673,1.5088 3.7485,0.097 5.4097,-2.2393 10,-4.5671 10.281,-6.8064 -11.896,5.1104 -20.054,1.395 -24.155,0.3396 z" /><path
           id="path3960"
           sodipodi:nodetypes="cccccc"
           style="fill:url(#linearGradient4065)"
           inkscape:connector-curvature="0"
           d="m 40.777,1046.8 c 0.12707,-0.4551 5.5804,1.5617 11.94,-0.3183 -0.97073,0.4736 -1.1044,0.6235 -3.7704,1.7526 -1.3139,0.3266 -1.8445,2.7467 -4.6382,0.1305 -1.6218,-0.2647 -1.846,-0.8321 -3.5311,-1.5651 z" /><path
           id="path3946"
           sodipodi:nodetypes="ccccc"
           style="fill:url(#linearGradient4068)"
           inkscape:connector-curvature="0"
           d="m 33.125,1027.3 c -0.49135,-0.031 -0.77767,2.6409 8.125,4.625 5.0859,1.1329 7.5175,0.1804 10.375,-0.4375 6.116,-1.0224 8.8379,-2.8851 7.8125,-3.875 -8.706,2.8791 -17.441,4.3997 -26.312,-0.3125 z" /></g></g></g><g
     inkscape:groupmode="layer"
     id="layer5"
     inkscape:label="Matraz"
     transform="translate(22.747007,3.033996)"><g
       id="g2512"
       transform="matrix(0.12095606,0.04402441,-0.04978365,0.13677946,30.069476,56.860747)"><path
         inkscape:connector-curvature="0"
         id="path2352"
         style="fill:#a5dfc9;stroke:#000000"
         d="m 382.34,469.12 c 2.99,10.08 7.29,19.99 12.97,29.5 37.96,63.58 123.2,85.98 190.28,50 l 0.66,-0.34 c 33.11,-17.98 55.53,-46.86 65.06,-79.16 l -268.97,0 z" /><g
         id="g2339"><path
           inkscape:connector-curvature="0"
           id="rect2236"
           sodipodi:nodetypes="cccccccccccccccccc"
           style="fill:url(#linearGradient2522);stroke:#000000"
           d="m 516.83,292.14 38.95,4.98 c 1.74,0 3.4,2.68 3.4,-0.26 l 0,-120.26 c 0,-0.18 -0.01,-0.33 -0.02,-0.51 l 2.08,0 c 1.65,0 2.97,-2.38 2.97,-5.33 l 0,-2.12 c 0,-2.95 -1.32,-5.31 -2.97,-5.31 l -86.25,0 c -0.08,0 -0.18,-0.01 -0.26,0 -1.53,0.21 -2.74,2.5 -2.74,5.31 l 0,2.12 c 0,2.95 1.35,5.33 3,5.33 l 1.69,0 c -0.01,0.17 -0.02,0.33 -0.02,0.51 l 0,119.59 c 0,2.95 1.68,0.54 3.42,0.54" /><path
           id="path2270"
           sodipodi:rx="120.6143"
           sodipodi:ry="120.6143"
           style="fill:url(#radialGradient2524);stroke:#000000"
           sodipodi:type="arc"
           d="M 603.66721,511.4983 A 120.6143,120.6143 0 0 1 439.37369,466.06441 120.6143,120.6143 0 0 1 484.58721,301.7101 120.6143,120.6143 0 0 1 649.00201,346.70317 120.6143,120.6143 0 0 1 604.22947,511.17816"
           sodipodi:open="true"
           transform="matrix(1.2262,0,0,1.171,-150.5,-42.526)"
           sodipodi:cy="406.52435"
           sodipodi:cx="544.26788"
           sodipodi:end="1.0505027"
           sodipodi:start="1.055867" /><rect
           id="rect2329"
           style="fill:url(#linearGradient2526)"
           rx="5.7308998"
           ry="13.828"
           height="131.00999"
           width="80.210999"
           y="175.39"
           x="477.92001" /><path
           id="path2291"
           sodipodi:rx="62.808842"
           sodipodi:ry="25.726597"
           style="fill:url(#linearGradient2528)"
           sodipodi:type="arc"
           d="m 549.13883,369.44306 a 62.808842,25.726597 0 0 1 -85.55441,-9.69089 62.808842,25.726597 0 0 1 23.54455,-35.05618 62.808842,25.726597 0 0 1 85.61756,9.59686 62.808842,25.726597 0 0 1 -23.31491,35.08192"
           sodipodi:open="true"
           transform="matrix(0.93484,-0.35507,0.35507,0.93484,-126.88,189.91)"
           sodipodi:cy="347.05249"
           sodipodi:cx="518.20715"
           sodipodi:end="1.0505027"
           sodipodi:start="1.055867" /><rect
           id="rect2301"
           style="fill:url(#linearGradient2530)"
           rx="5.7308998"
           ry="3.5274"
           height="146.10001"
           width="13.584"
           y="178.11"
           x="480.34" /><path
           id="path2314"
           sodipodi:rx="70.783569"
           sodipodi:ry="55.145088"
           style="fill:url(#linearGradient1408)"
           sodipodi:type="arc"
           d="m 615.72059,561.27145 a 70.783569,55.145088 0 0 1 -96.4171,-20.77246 70.783569,55.145088 0 0 1 26.53395,-75.1431 70.783569,55.145088 0 0 1 96.48828,20.57091 70.783569,55.145088 0 0 1 -26.27516,75.19828"
           sodipodi:open="true"
           transform="matrix(0.95152,-0.3076,0.3076,0.95152,-160.47,197.55)"
           sodipodi:cy="513.27716"
           sodipodi:cx="580.86157"
           sodipodi:end="1.0505027"
           sodipodi:start="1.055867" /></g></g></g><g
     inkscape:groupmode="layer"
     id="layer6"
     inkscape:label="Book"
     transform="translate(22.747007,3.033996)"><g
       transform="matrix(0.08916027,-0.07481436,0.0616281,0.0734455,67.559497,156.74319)"
       id="g4509"><path
         style="opacity:0.53443998;filter:url(#filter4267)"
         inkscape:connector-curvature="0"
         transform="matrix(0.51856,0,0,0.51856,449.81,94.218)"
         d="m -349.03,10.225 -184.9,320.26 227.02,104.46 211.04,151.61 184.91,-320.25 -240.33,-92.86 -197.74,-163.22 z"
         id="path3286" /><path
         inkscape:connector-curvature="0"
         style="fill:url(#linearGradient4602);stroke:#301a16;stroke-width:7.77839994;stroke-linecap:square;stroke-linejoin:round"
         d="m 256.29,102.36 -90.699,160.88 110.58,62.502 111.4,75.474 95.885,-166.07 -124.62,-48.157 -102.54,-84.634 z"
         id="rect3371" /><path
         style="fill:#dcdcdc;stroke:#000000;stroke-width:0.26536;stroke-linecap:square;stroke-linejoin:round"
         inkscape:connector-curvature="0"
         d="m 278.04,321.11 c 0.48649,0.0608 -67.848,-40.041 -107.85,-62.068 l -1.71,2.5739 c 16.097,6.0106 101.98,58.179 109.56,59.494 z m 0.81384,-0.25739 c 0,0 -70.379,-41.505 -107.9,-63.027 l -1.1862,2.05 c 8.6807,4.6138 103.46,60.019 109.09,60.977 z m -0.89268,-0.94182 c -0.29096,-0.29096 -69.617,-43.177 -106.07,-64.059 l -0.65182,0.34762 c 9.9365,5.1269 105.04,63.41 106.72,63.711 z m -0.33628,-0.82697 c 0,0 -101.97,-64.705 -104.6,-65.414 l -0.85265,1.5932 c 12.532,5.5709 103.65,63.581 105.45,63.821 z m -0.79943,-0.61665 c -2.0144,-2.931 -99.126,-67.666 -101.78,-68.086 l -1.7212,2.1262 c 3.1982,0.0683 104.13,65.093 103.5,65.96 z"
         id="path3241" /><path
         style="fill:#dcdcdc;stroke:#000000;stroke-width:0.25928;stroke-linecap:square;stroke-linejoin:round"
         inkscape:connector-curvature="0"
         d="m 276.92,319.35 c -16.448,-9.8954 65.818,33.601 114.87,66.732 l 0.72922,-1.2316 c -11.88,-7.56 -106.45,-63.07 -115.6,-65.5 z m -0.19446,0.86118 c 0.15826,-0.15826 79.091,43.085 114.18,67.394 l 0.74543,-1.2964 c -11.24,-7.08 -106.06,-63.36 -114.94,-66.09 z m 0.75932,1.2756 c 0,0 77.586,43.912 112.4,67.869 l 0.74543,-1.2964 c -8.09,-5.19 -107.76,-65.19 -113.16,-66.58 z m 0.60883,0.8033 c 0,0 76.534,45.24 110.73,68.913 l 0.74543,-1.2964 c -8.85,-5.75 -108.99,-67.11 -111.49,-67.61 z m 0.75932,0.65746 c 0,0 75.776,47.294 108.83,70.184 l 0.81025,-1.3774 c -4.7021,-3.058 -106.9,-67.594 -109.64,-68.806 z m 0.72923,0.6644 106.82,71.739 0.79404,-1.3774 -107.62,-70.362 z"
         id="path3211" /><path
         inkscape:connector-curvature="0"
         style="fill:url(#linearGradient4604);stroke:#000000;stroke-width:1.03709996;stroke-linecap:square;stroke-linejoin:round"
         d="m 274.07,106.07 -88.05,154.22 c 0,0 65.427,31.011 92.142,64.536 l 82.97,-138.48 c -6.2859,-28.286 -87.061,-80.283 -87.061,-80.283 z"
         id="path3380" /><path
         inkscape:connector-curvature="0"
         style="fill:url(#linearGradient4606);stroke:#000000;stroke-width:1.03709996;stroke-linecap:square;stroke-linejoin:round"
         d="m 256.75,108.71 -87.884,152.73 c 9.9526,-2.0953 17.904,-1.3867 17.904,-1.3867 l 86.958,-153.39 c 0,0 -8.597,-0.57961 -16.978,2.0395 z"
         id="path3390" /><path
         style="fill:#dcdcdc;stroke:#000000;stroke-width:0.37395999;stroke-linecap:square;stroke-linejoin:round"
         inkscape:connector-curvature="0"
         d="m 269.18,106.95 -86.421,152.68 c 0.54863,0.02 1.0949,0.0398 1.6367,0.0648 l 86.34,-152.74 c -0.46858,-0.0152 -0.99341,-0.0144 -1.5557,0 z m -2.0256,0.1136 c -0.57773,0.0393 -1.1679,0.0891 -1.7663,0.14584 l -86.502,152.47 c 0.5793,-0.0218 1.1367,-0.0331 1.6853,-0.0324 l 86.583,-152.58 z m -4.1161,0.4706 c -0.64756,0.0825 -1.2815,0.18136 -1.8798,0.27548 l -87.004,152.37 c 0.84649,-0.13308 1.6486,0.0118 2.4145,-0.0624 l 86.47,-152.58 z m -3.7434,0.6978 c -0.82941,0.16865 -1.5009,0.34854 -1.9608,0.51856 l -86.356,152.01 c 0.6561,-0.14906 1.2884,-0.29152 1.896,-0.40513 l 86.421,-152.13 z"
         id="path3291" /><text
         sodipodi:linespacing="125%"
         x="415.07928"
         y="121.14006"
         transform="matrix(0.90308,0.42946,-0.42946,0.90308,0,0)"
         font-size="12px"
         xml:space="preserve"
         line-height="125%"
         style="font-size:12px;line-height:125%;font-family:Sans;letter-spacing:0px;word-spacing:0px;fill:#000000"
         id="text4470"><tspan
           style="font-size:4px"
           font-size="4px"
           x="415.07928"
           y="121.14006"
           id="tspan4472">became the destination and an attraction for the</tspan></text>
<path
         inkscape:connector-curvature="0"
         style="fill:url(#linearGradient4608);stroke:#000000;stroke-width:0.51855999;stroke-linecap:square;stroke-linejoin:round"
         d="m 278.06,324.17 c 27.488,3.3336 104.74,56.771 104.74,56.771 l 91.13,-162.01 c 0,0 -82.717,-38.204 -113.1,-32.442 l -82.77,137.68 z"
         id="path3394" /><text
         sodipodi:linespacing="125%"
         x="427.85663"
         y="96.109306"
         font-size="12px"
         line-height="125%"
         transform="matrix(0.90108459,0.43364336,-0.43364336,0.90108459,0,0)"
         xml:space="preserve"
         style="font-size:12px;line-height:125%;font-family:Sans;letter-spacing:0px;word-spacing:0px;fill:#000000"
         id="text4474"><tspan
           style="font-size:4px"
           font-size="4px"
           x="427.85663"
           y="96.109306"
           id="tspan4476">casual event for one's car-loving family.  It</tspan></text>
<text
         sodipodi:linespacing="125%"
         x="520.86841"
         y="71.754837"
         transform="matrix(0.72706,0.32561,-0.51307,1.1456,0,0)"
         font-size="15.063px"
         xml:space="preserve"
         line-height="125%"
         style="font-size:15.06299973px;line-height:125%;font-family:Sans;letter-spacing:0px;word-spacing:0px;fill:#000000"
         id="text4478"><tspan
           style="font-size:5.02110004px"
           font-size="5.0211px"
           x="520.86841"
           y="71.754837"
           id="tspan4480">ests; no one gets out without having been gorged</tspan></text>
<text
         sodipodi:linespacing="125%"
         x="427.9949"
         y="118.69693"
         transform="matrix(0.8848,0.46596,-0.46596,0.8848,0,0)"
         font-size="12px"
         xml:space="preserve"
         line-height="125%"
         style="font-size:12px;line-height:125%;font-family:Sans;letter-spacing:0px;word-spacing:0px;fill:#000000"
         id="text4466"><tspan
           style="font-size:4px"
           font-size="4px"
           x="427.9949"
           y="118.69693"
           id="tspan4468">elite and well-positioned to see and be seen.</tspan></text>
<text
         sodipodi:linespacing="125%"
         x="426.68616"
         y="99.042763"
         font-size="12px"
         line-height="125%"
         transform="matrix(0.8848,0.46596,-0.46596,0.8848,0,0)"
         xml:space="preserve"
         style="font-size:12px;line-height:125%;font-family:Sans;letter-spacing:0px;word-spacing:0px;fill:#000000"
         id="text4505"><tspan
           style="font-size:4px"
           font-size="4px"
           x="426.68616"
           y="99.042763"
           id="tspan4507">elite and well-positioned to see and be seen.</tspan></text>
<path
         inkscape:connector-curvature="0"
         style="fill:url(#linearGradient4610);stroke:#000000;stroke-width:0.51855999;stroke-linecap:square;stroke-linejoin:round"
         d="m 278.03,324.18 c 23.413,-6.2968 96.68,27.435 96.68,27.435 l 91.17,-145.64 c 0,0 -73.966,-33.04 -104.72,-19.87 l -83.133,138.07 z"
         id="path3408" /><path
         inkscape:connector-curvature="0"
         style="fill:url(#linearGradient4612);stroke:#000000;stroke-width:0.51855999;stroke-linecap:square;stroke-linejoin:round"
         d="m 382.85,380.91 c 3.765,7.9556 3.2672,14.828 3.2672,14.828 l 91.825,-158.6 c 0,0 1.3564,-11.751 -3.8818,-18.037 l -91.21,161.81 z"
         id="path3412" /><path
         style="fill:#dcdcdc;stroke:#000000;stroke-width:0.37395999;stroke-linecap:square;stroke-linejoin:round"
         inkscape:connector-curvature="0"
         d="m 474.82,220.42 -91.039,162.39 c 0.23551,0.62407 0.46847,1.2467 0.6644,1.8636 l 91.19,-162.67 c -0.25697,-0.54888 -0.52484,-1.0798 -0.81025,-1.5881 z m 1.7339,3.8568 -91.396,163.04 c 0.1733,0.73861 0.31514,1.4745 0.43753,2.2039 l 91.558,-163.3 c -0.17638,-0.67864 -0.38306,-1.3233 -0.59958,-1.9446 z m 1.1668,4.8453 -91.736,163.62 c 0.0489,0.65557 0.0834,1.3116 0.0972,1.9608 l 0.34031,0.24308 91.59,-163.35 c -0.0643,-0.86567 -0.17305,-1.6913 -0.29169,-2.4794 z"
         id="rect3255" /><path
         style="fill:#d7eef4;stroke:#000000;stroke-width:1px"
         inkscape:connector-curvature="0"
         d="m 274.41,123.73 c 30.263,17.952 51.301,40.314 68.169,59.549 l -34.788,62.165 c -19.94,-20.09 -51.25,-36.48 -74.01,-49.79 z"
         id="path4156" /><path
         style="fill:#f9f9f9;stroke:#000000;stroke-width:0.40340999px"
         inkscape:connector-curvature="0"
         d="m 285.47,154.97 c 1.2656,2.3052 1.9012,5.1149 4.0878,6.7848 1.1902,1.9256 3.4379,4.0064 5.8688,3.0351 2.1847,-0.52347 3.5899,1.6553 4.6938,3.17 1.3218,1.7706 3.2184,4.2715 5.7495,3.3709 2.6427,-0.79348 4.4052,1.4012 5.9515,2.9404 1.7548,0.81742 4.3944,0.33206 5.0265,-1.7051 -0.0286,-2.6656 -1.5954,-4.9773 -2.8466,-7.2146 -1.7182,-2.0472 -3.7424,-3.821 -5.7626,-5.5405 -1.6731,-2.3854 -2.3082,-5.4487 -4.5859,-7.4129 -2.0626,-2.2102 -4.2247,-4.3455 -6.1745,-6.6478 -1.804,-1.1937 -4.3686,0.5747 -5.9124,-1.211 -1.3413,-2.5138 -1.6497,-5.8489 -4.2814,-7.4867 -2.6032,-1.7673 -6.8702,-1.9315 -8.7531,0.9601 -1.2851,2.2448 1.3406,4.3874 0.78012,6.6418 -1.568,1.8604 -2.3942,4.4301 -0.34597,6.3596 1.5403,2.2966 4.2256,2.79 6.5044,3.9561 z"
         id="path3313" /><path
         style="fill:#ffffff;stroke:#000000;stroke-width:0.40340999px"
         inkscape:connector-curvature="0"
         d="m 322.64,193 c 4.4838,-2.3545 0.57712,-4.5129 -2.3182,-6.2524 -0.3325,-0.20021 -1.3607,0.24272 -1.1609,-0.09 1.1104,-1.8481 -1.3804,-10.661 -5.7991,-9.5586 -1.2508,0.31194 -1.2176,3.5207 -1.4308,3.3926 -1.6026,-0.96279 -1.836,-4.4753 -5.0881,-3.6643 -0.59542,0.14849 -0.92355,1.3688 -1.519,1.5172 -3.8343,0.95623 5.342,8.2972 4.9064,9.0222 -0.79185,1.318 -2.7294,2.0666 -2.8598,3.749 -0.13288,1.7146 3.4245,7.8739 5.979,7.2368 1.0244,-0.25548 1.1503,-2.9537 2.0553,-2.41 1.0518,0.63188 3.8543,8.9051 7.3181,8.0413 2.1691,-0.54094 2.7084,-4.3561 2.3252,-5.8925 -0.0506,-0.20294 -2.2894,-1.2449 -2.2318,-1.3408 0.4469,-0.74393 1.3665,1.2738 2.2318,1.3408 0.36347,0.0282 3.7542,-0.16253 3.3944,-1.6055 -0.67173,-2.6935 -2.9218,-3.4844 -5.8026,-3.4861 z"
         id="path3339" /><path
         style="fill:#00aa44;stroke:#000000;stroke-width:0.40340999px"
         inkscape:connector-curvature="0"
         d="m 234.25,196.19 c 31.087,18.768 52.38,29.564 72.913,48.731 1.5835,-4.1442 2.069,-4.0583 4.1598,-7.8423 0.39471,-0.68531 2.711,-5.2232 2.711,-5.2232 0,0 -7.0621,-4.4138 -10.556,-10.481 -2.5498,-5.2564 -7.8488,-12.106 -12.093,-16.389 -15.237,-16.143 -40.722,-28.317 -48.128,-24.209 -3.5124,5.4795 -7.3095,13.616 -9.0064,15.414 z"
         id="path3309" /><rect
         style="fill:#ffd5d5"
         x="331.32999"
         y="-48.312"
         width="23.952999"
         height="15.621"
         transform="matrix(0.74069,0.67184,-0.67184,0.74069,0,0)"
         id="rect3357" /><path
         style="fill:#d40000;stroke:#000000;stroke-width:0.40340999px"
         inkscape:connector-curvature="0"
         d="m 288.92,180.69 c -0.53468,4.9924 -4.2323,9.4022 -3.7981,13.706 0.0447,0.44247 2.0373,1.6639 2.4198,1.9763 2.1792,1.7797 7.4711,7.7578 9.2759,7.5757 1.6775,-0.16924 4.9829,-12.205 4.6047,-13.047 -1.3467,-2.997 -3.4466,-1.1493 -3.7036,-3.6971 -0.0318,-0.31472 -7.0697,-4.4126 -8.7987,-6.5136 z"
         id="path3359" /><path
         style="fill:#ffffff;stroke:#000000;stroke-width:0.40340999px"
         inkscape:connector-curvature="0"
         d="m 288.84,179.95 c -0.20822,1.1938 -12.639,6.7767 -12.597,7.192 0.0791,0.78395 7.5209,8.2651 8.3214,5.4516 1.6392,-5.7609 4.0264,-8.8589 4.2754,-12.644 z"
         id="path3361" /><text
         sodipodi:linespacing="125%"
         line-height="125%"
         style="font-size:12px;line-height:125%;font-family:Sans;letter-spacing:0px;word-spacing:0px;fill:#000000"
         xml:space="preserve"
         font-size="12px"
         id="text4249"><textPath
           xlink:href="#path4443"
           id="textPath4445"><tspan
   style="font-size:4px"
   font-size="4px"
   id="tspan4251">was running along with the beautiful</tspan></textPath></text>
<text
         sodipodi:linespacing="125%"
         line-height="125%"
         style="font-size:12px;line-height:125%;font-family:Sans;letter-spacing:0px;word-spacing:0px;fill:#000000"
         xml:space="preserve"
         font-size="12px"
         id="text4253"><textPath
           xlink:href="#path4438"
           id="textPath4440"><tspan
   style="font-size:4px"
   font-size="4px"
   id="tspan4255">beasts.  They were both graceful and violent as their</tspan></textPath></text>
<path
         style="fill:none"
         inkscape:connector-curvature="0"
         d="m 388.14,166.39 c 14.424,-4.4882 60.054,6.0513 88.867,22.418"
         id="path4809" /><path
         style="fill:none"
         inkscape:connector-curvature="0"
         d="m 355.48,207.07 c 14.424,-4.4882 60.054,6.0513 88.867,22.418"
         id="path4811" /><path
         style="fill:none"
         inkscape:connector-curvature="0"
         d="m 347.45,219.33 c 14.424,-4.4882 60.476,6.0513 89.29,22.418"
         id="path4813" /><path
         style="fill:none"
         inkscape:connector-curvature="0"
         d="m 340.68,232.86 c 14.424,-4.4882 60.476,6.0513 89.29,22.418"
         id="path4815" /><path
         style="fill:none"
         inkscape:connector-curvature="0"
         d="m 331.37,247.24 c 14.424,-4.4882 60.476,6.0513 89.29,22.418"
         id="path4817" /><path
         style="fill:none"
         inkscape:connector-curvature="0"
         d="m 327.83,262.16 c 14.424,-1.5518 49.465,5.3172 78.278,21.684"
         id="path4819" /><path
         style="fill:none"
         inkscape:connector-curvature="0"
         d="m 319.26,278.14 c 14.424,0.65046 46.529,6.0513 75.342,22.418"
         id="path4821" /><path
         style="fill:none"
         inkscape:connector-curvature="0"
         d="m 310.04,296.64 c 12.222,2.1186 42.124,4.5831 70.937,20.949"
         id="path4823" /><path
         style="fill:none"
         inkscape:connector-curvature="0"
         d="m 223.34,218.45 c 26.718,13.422 49.981,28.416 72.219,46.557"
         id="path4825" /><path
         style="fill:none"
         inkscape:connector-curvature="0"
         d="m 219.18,229.58 c 22.856,12.945 53.709,28.478 75.205,51.485"
         id="path4827" /><path
         style="fill:none"
         inkscape:connector-curvature="0"
         d="m 214.12,237.19 c 20.891,10.856 43.992,25.392 67.696,43.773"
         id="path4829" /><path
         style="fill:none"
         inkscape:connector-curvature="0"
         d="m 227.85,209.06 c 29.994,16.312 54.203,31.967 75.563,51.142"
         id="path4831" /><path
         style="fill:none"
         inkscape:connector-curvature="0"
         d="m 206.62,248.35 c 19.787,10.232 44.866,23.126 68.755,41.266"
         id="path4833" /><text
         sodipodi:linespacing="125%"
         line-height="125%"
         style="font-size:12px;line-height:125%;font-family:Sans;letter-spacing:0px;word-spacing:0px;fill:#000000"
         xml:space="preserve"
         font-size="12px"
         id="text4315"><textPath
           xlink:href="#path4304"
           id="textPath4322"><tspan
   style="font-size:4px"
   font-size="4px"
   id="tspan4317">It was the best of times and the worst of times.</tspan></textPath></text>
<text
         sodipodi:linespacing="125%"
         line-height="125%"
         style="font-size:12px;line-height:125%;font-family:Sans;letter-spacing:0px;word-spacing:0px;fill:#000000"
         xml:space="preserve"
         font-size="12px"
         id="text4325"><textPath
           xlink:href="#path4298"
           id="textPath4333"><tspan
   id="tspan4327"><tspan
     style="font-size:6px"
     font-size="6px"
     id="tspan4329"><tspan
       style="font-size:4px"
       font-size="4px"
       id="tspan4331">In the north, there was joy and prosperity.  In </tspan></tspan></tspan></textPath></text>
<text
         sodipodi:linespacing="125%"
         transform="translate(-0.45293,-3.1705)"
         style="font-size:12px;line-height:125%;font-family:Sans;letter-spacing:0px;word-spacing:0px;fill:#000000"
         xml:space="preserve"
         line-height="125%"
         font-size="12px"
         id="text4338"><textPath
           xlink:href="#path4300"
           id="textPath4342"><tspan
   style="font-size:4px"
   font-size="4px"
   id="tspan4340">the south, there was simmering, seething dis-</tspan></textPath></text>
<text
         sodipodi:linespacing="125%"
         transform="translate(-0.90586,-2.7176)"
         style="font-size:12px;line-height:125%;font-family:Sans;letter-spacing:0px;word-spacing:0px;fill:#000000"
         xml:space="preserve"
         line-height="125%"
         font-size="12px"
         id="text4345"><textPath
           xlink:href="#path4302"
           id="textPath4349"><tspan
   style="font-size:4px"
   font-size="4px"
   id="tspan4347">-content.  Unhappiness bred discontent and </tspan></textPath></text>
<text
         sodipodi:linespacing="125%"
         transform="translate(1.8117,-4.0764)"
         style="font-size:12px;line-height:125%;font-family:Sans;letter-spacing:0px;word-spacing:0px;fill:#000000"
         xml:space="preserve"
         line-height="125%"
         font-size="12px"
         id="text4352"><textPath
           xlink:href="#path4313"
           id="textPath4356"><tspan
   style="font-size:4px"
   font-size="4px"
   id="tspan4354">restlessness for change.</tspan></textPath></text>
<text
         sodipodi:linespacing="125%"
         transform="translate(-25.693,31.566)"
         style="font-size:12px;line-height:125%;font-family:Sans;letter-spacing:0px;word-spacing:0px;fill:#000000"
         xml:space="preserve"
         line-height="125%"
         font-size="12px"
         id="text4359"><textPath
           xlink:href="#path4273"
           id="textPath4363"><tspan
   style="font-size:4px"
   font-size="4px"
   id="tspan4361">Horses ran wild and the ground shuddered under</tspan></textPath></text>
<text
         sodipodi:linespacing="125%"
         transform="matrix(0.99952,0.030879,-0.030879,0.99952,10.416,-10.532)"
         style="font-size:12px;line-height:125%;font-family:Sans;letter-spacing:0px;word-spacing:0px;fill:#000000"
         xml:space="preserve"
         line-height="125%"
         font-size="12px"
         id="text4376"><textPath
           xlink:href="#path4284"
           id="textPath4382"><tspan
   id="tspan4378"><tspan
     style="font-size:4px"
     font-size="4px"
     id="tspan4380">their powerful hooves.  The rhythm carried </tspan></tspan></textPath></text>
<text
         sodipodi:linespacing="125%"
         transform="matrix(0.99725,0.074097,-0.074097,0.99725,22.973,-28.125)"
         style="font-size:12px;line-height:125%;font-family:Sans;letter-spacing:0px;word-spacing:0px;fill:#000000"
         xml:space="preserve"
         line-height="125%"
         font-size="12px"
         id="text4387"><textPath
           xlink:href="#path4286"
           id="textPath4391"><tspan
   style="font-size:4px"
   font-size="4px"
   id="tspan4389">drove the beating of her heart.  She breathed in </tspan></textPath></text>
<text
         sodipodi:linespacing="125%"
         transform="matrix(0.997,0.077362,-0.077362,0.997,23.986,-30.737)"
         style="font-size:12px;line-height:125%;font-family:Sans;letter-spacing:0px;word-spacing:0px;fill:#000000"
         xml:space="preserve"
         line-height="125%"
         font-size="12px"
         id="text4394"><textPath
           xlink:href="#path4288"
           id="textPath4398"><tspan
   style="font-size:4px"
   font-size="4px"
   id="tspan4396">breathed in seeming rhythm of their hooves</tspan></textPath></text>
<text
         sodipodi:linespacing="125%"
         transform="matrix(0.99855,0.053807,-0.053807,0.99855,21.397,-22.911)"
         style="font-size:12px;line-height:125%;font-family:Sans;letter-spacing:0px;word-spacing:0px;fill:#000000"
         xml:space="preserve"
         line-height="125%"
         font-size="12px"
         id="text4401"><textPath
           xlink:href="#path4290"
           id="textPath4405"><tspan
   style="font-size:4px"
   font-size="4px"
   id="tspan4403">as the muffled thunder filled the valley.</tspan></textPath></text>
<text
         sodipodi:linespacing="125%"
         transform="translate(2.9364,-8.8091)"
         style="font-size:12px;line-height:125%;font-family:Sans;letter-spacing:0px;word-spacing:0px;fill:#000000"
         xml:space="preserve"
         line-height="125%"
         font-size="12px"
         id="text4408"><textPath
           xlink:href="#path4292"
           id="textPath4412"><tspan
   style="font-size:4px"
   font-size="4px"
   id="tspan4410">Tara turned to Jafar and asked, &quot;Are the Arabian</tspan></textPath></text>
<text
         sodipodi:linespacing="125%"
         transform="translate(5.1386,-12.48)"
         style="font-size:12px;line-height:125%;font-family:Sans;letter-spacing:0px;word-spacing:0px;fill:#000000"
         xml:space="preserve"
         line-height="125%"
         font-size="12px"
         id="text4415"><textPath
           xlink:href="#path4294"
           id="textPath4419"><tspan
   style="font-size:4px"
   font-size="4px"
   id="tspan4417">horses you promised me?&quot;  He turned to her and</tspan></textPath></text>
<text
         sodipodi:linespacing="125%"
         font-size="12px"
         line-height="125%"
         transform="matrix(0.99899,0.044875,-0.044875,0.99899,24.847,-32.348)"
         xml:space="preserve"
         style="font-size:12px;line-height:125%;font-family:Sans;letter-spacing:0px;word-spacing:0px;fill:#000000"
         id="text4422"><textPath
           xlink:href="#path4296"
           id="textPath4426"><tspan
   style="font-size:4px"
   font-size="4px"
   id="tspan4424">his gaze betrayed a wry grin.</tspan></textPath></text>
<path
         style="fill:none"
         inkscape:connector-curvature="0"
         d="m 313.46,288.4 c 21.333,4.5889 47.181,11.363 65.334,20.555"
         id="path4877" /><path
         style="fill:none"
         inkscape:connector-curvature="0"
         d="m 308.32,300.15 c 16.68,1.9885 41.34,11.557 63.866,21.289"
         id="path4879" /></g></g><metadata
     id="metadata827"><rdf:RDF><cc:Work><dc:format>image/svg+xml</dc:format><dc:type
           rdf:resource="http://purl.org/dc/dcmitype/StillImage" /><cc:license
           rdf:resource="http://creativecommons.org/publicdomain/zero/1.0/" /><dc:publisher><cc:Agent
             rdf:about="http://openclipart.org/"><dc:title>Openclipart</dc:title></cc:Agent></dc:publisher><dc:title>Knowledge</dc:title><dc:date>2015-07-05</dc:date><dc:description /><dc:source></dc:source><dc:creator><cc:Agent><dc:title>jabernal</dc:title></cc:Agent></dc:creator><dc:subject><rdf:Bag><rdf:li>knowledge</rdf:li></rdf:Bag></dc:subject></cc:Work><cc:License
         rdf:about="http://creativecommons.org/publicdomain/zero/1.0/"><cc:permits
           rdf:resource="http://creativecommons.org/ns#Reproduction" /><cc:permits
           rdf:resource="http://creativecommons.org/ns#Distribution" /><cc:permits
           rdf:resource="http://creativecommons.org/ns#DerivativeWorks" /></cc:License></rdf:RDF></metadata></svg>